# Created by Kenney (www.kenney.nl)

mtllib bumpDownWalls.mtl

g bumpDownWalls

v 0.49995 0 0.49995
v 0.39996 0 0.49995
v 0.49995 0.146652 0.49995
v 0.39996 0.063327 0.49995
v 0.39996 0.146652 0.49995
v 0.49995 0 -0.49995
v 0.39996 0 -0.49995
v -0.39996 0 -0.49995
v -0.39996 0 0.49995
v -0.49995 0 -0.49995
v -0.49995 0 0.49995
v 0.49995 0.146652 -0.49995
v -0.39996 0.146652 -0.49995
v -0.39996 0.146652 0.49995
v -0.49995 0.146652 -0.49995
v -0.49995 0.146652 0.49995
v -0.39996 0.063327 -0.49995
v 0.39996 0.146652 -0.49995
v 0.39996 0.063327 -0.49995
v -0.39996 0.063327 0.49995
v 0.149985 0.029997 0
v 0.1448744 0.029997 0.03881897
v 0.1448744 0.029997 -0.03881897
v 0.1298908 0.029997 -0.07499249
v 0.1298908 0.029997 0.07499249
v 0.1060554 0.029997 -0.1060554
v 0.1060554 0.029997 0.1060554
v 0.07499249 0.029997 -0.1298908
v 0.07499249 0.029997 0.1298908
v 0.03881897 0.029997 -0.1448744
v 0.03881897 0.029997 0.1448744
v 3.060904E-13 0.029997 -0.149985
v 3.060904E-13 0.029997 0.149985
v -0.03881897 0.029997 -0.1448744
v -0.03881897 0.029997 0.1448744
v -0.07499249 0.029997 -0.1298908
v -0.07499249 0.029997 0.1298908
v -0.1060554 0.029997 -0.1060554
v -0.1060554 0.029997 0.1060554
v -0.1298908 0.029997 -0.07499249
v -0.1298908 0.029997 0.07499249
v -0.1448744 0.029997 -0.03881897
v -0.1448744 0.029997 0.03881897
v -0.149985 0.029997 0
v 3.118657E-13 0.063327 0.29997
v -0.07763795 0.063327 0.2897488
v -0.149985 0.063327 -0.2597817
v -0.2121108 0.063327 -0.2121108
v -0.2121108 0.063327 0.2121108
v -0.2597817 0.063327 0.149985
v -0.07763795 0.063327 -0.2897488
v -0.2597817 0.063327 -0.149985
v -0.2897488 0.063327 -0.07763795
v -0.2897488 0.063327 0.07763795
v -0.29997 0.063327 5.775291E-15
v 0.07763795 0.063327 0.2897488
v 3.118657E-13 0.063327 -0.29997
v -0.149985 0.063327 0.2597817
v 0.2121108 0.063327 0.2121108
v 0.149985 0.063327 0.2597817
v 0.2597817 0.063327 -0.149985
v 0.2121108 0.063327 -0.2121108
v 0.2597817 0.063327 0.149985
v 0.2897488 0.063327 0.07763795
v 0.29997 0.063327 5.775291E-15
v 0.2897488 0.063327 -0.07763795
v 0.149985 0.063327 -0.2597817
v 0.07763795 0.063327 -0.2897488

vn 0 0 1
vn 0 -1 0
vn 1 0 0
vn 0 1 0
vn -1 0 0
vn 0 0 -1
vn -0.1180831 0.9930038 0
vn -0.1140595 0.9930038 -0.03056214
vn -0.1140595 0.9930038 0.03056214
vn -0.1022629 0.9930038 0.05904153
vn -0.1022629 0.9930038 -0.05904153
vn -0.08349732 0.9930038 0.08349732
vn -0.08349732 0.9930038 -0.08349732
vn -0.05904153 0.9930038 0.1022629
vn -0.05904153 0.9930038 -0.1022629
vn -0.03056214 0.9930038 0.1140595
vn -0.03056214 0.9930038 -0.1140595
vn 0 0.9930038 0.1180831
vn 0 0.9930038 -0.1180831
vn 0.03056214 0.9930038 0.1140595
vn 0.03056214 0.9930038 -0.1140595
vn 0.05904153 0.9930038 0.1022629
vn 0.05904153 0.9930038 -0.1022629
vn 0.08349732 0.9930038 0.08349732
vn 0.08349732 0.9930038 -0.08349732
vn 0.1022629 0.9930038 0.05904153
vn 0.1022629 0.9930038 -0.05904153
vn 0.1140595 0.9930038 0.03056214
vn 0.1140595 0.9930038 -0.03056214
vn 0.1180831 0.9930038 0
vn 0 0.9949758 -0.1001153
vn 0.02591175 0.9949758 -0.09670398
vn 0.05005767 0.9949758 0.08670242
vn 0.07079223 0.9949758 0.07079223
vn 0.07079223 0.9949758 -0.07079223
vn 0.08670242 0.9949758 -0.05005767
vn 0.02591175 0.9949758 0.09670398
vn 0.08670242 0.9949758 0.05005767
vn 0.09670398 0.9949758 0.02591175
vn 0.09670398 0.9949758 -0.02591175
vn 0.1001153 0.9949758 0
vn -0.02591175 0.9949758 -0.09670398
vn 0 0.9949758 0.1001153
vn 0.05005767 0.9949758 -0.08670242
vn -0.07079223 0.9949758 -0.07079223
vn -0.05005767 0.9949758 -0.08670242
vn -0.08670242 0.9949758 0.05005767
vn -0.07079223 0.9949758 0.07079223
vn -0.08670242 0.9949758 -0.05005767
vn -0.09670398 0.9949758 -0.02591175
vn -0.1001153 0.9949758 0
vn -0.09670398 0.9949758 0.02591175
vn -0.05005767 0.9949758 0.08670242
vn -0.02591175 0.9949758 0.09670398

vt 19.68307 1.152413E-14
vt 15.74646 1.152413E-14
vt 19.68307 5.773701
vt 15.74646 2.493189
vt 15.74646 5.773701
vt 19.68307 -19.68307
vt 15.74646 -19.68307
vt 19.68307 19.68307
vt 15.74646 19.68307
vt -15.74646 -19.68307
vt -15.74646 19.68307
vt -19.68307 -19.68307
vt -19.68307 19.68307
vt 19.68307 0
vt -19.68307 5.773701
vt -19.68307 0
vt 19.68307 -3.155405E-31
vt 15.74646 -3.155405E-31
vt -19.68307 2.493189
vt 19.68307 2.493189
vt -15.74646 5.608987E-14
vt -19.68307 1.152413E-14
vt -15.74646 2.493189
vt -15.74646 5.773701
vt -15.74646 1.53655E-14
vt -19.68307 1.53655E-14
vt -5.904921 0
vt -5.703716 1.528306
vt -5.703716 -1.528306
vt -5.113812 -2.952461
vt -5.113812 2.952461
vt -4.17541 -4.17541
vt -4.17541 4.17541
vt -2.952461 -5.113812
vt -2.952461 5.113812
vt -1.528306 -5.703716
vt -1.528306 5.703716
vt -1.20508E-11 -5.904921
vt -1.20508E-11 5.904921
vt 1.528306 -5.703716
vt 1.528306 5.703716
vt 2.952461 -5.113812
vt 2.952461 5.113812
vt 4.17541 -4.17541
vt 4.17541 4.17541
vt 5.113812 -2.952461
vt 5.113812 2.952461
vt 5.703716 -1.528306
vt 5.703716 1.528306
vt 5.904921 0
vt -1.541494 11.97062
vt 1.541494 11.97062
vt -0.7707469 5.970961
vt 0.7707469 5.970961
vt -10.22762 -5.904921
vt -11.40743 -3.056612
vt -8.35082 -8.35082
vt -5.904921 -10.22762
vt -3.056612 -11.40743
vt -1.227818E-11 -11.80984
vt 3.056612 -11.40743
vt -11.80984 2.273737E-13
vt 5.904921 -10.22762
vt -11.40743 3.056612
vt 8.35082 -8.35082
vt -10.22762 5.904921
vt -8.35082 8.35082
vt -5.904921 10.22762
vt -3.056612 11.40743
vt -1.227818E-11 11.80984
vt 10.22762 -5.904921
vt 11.40743 -3.056612
vt 11.80984 2.273737E-13
vt 3.056612 11.40743
vt 11.40743 3.056612
vt 5.904921 10.22762
vt 10.22762 5.904921
vt 8.35082 8.35082

usemtl border

f 3/3/1 2/2/1 1/1/1
f 2/2/1 3/3/1 4/4/1
f 4/4/1 3/3/1 5/5/1
f 1/8/2 7/7/2 6/6/2
f 7/7/2 1/8/2 2/9/2
f 7/7/2 2/9/2 8/10/2
f 8/10/2 2/9/2 9/11/2
f 8/10/2 9/11/2 10/12/2
f 10/12/2 9/11/2 11/13/2
f 3/15/3 6/14/3 12/3/3
f 6/14/3 3/15/3 1/16/3
f 15/6/4 14/9/4 13/7/4
f 14/9/4 15/6/4 16/8/4
f 11/14/5 15/15/5 10/16/5
f 15/15/5 11/14/5 16/3/5
f 15/3/6 8/18/6 10/17/6
f 8/18/6 15/3/6 17/4/6
f 17/4/6 15/3/6 13/5/6
f 18/10/4 3/13/4 12/12/4
f 3/13/4 18/10/4 5/11/4
f 4/20/5 18/15/5 19/19/5
f 18/15/5 4/20/5 5/3/5
f 14/15/3 17/20/3 13/3/3
f 17/20/3 14/15/3 20/19/3
f 20/23/1 11/22/1 9/21/1
f 11/22/1 20/23/1 16/15/1
f 16/15/1 20/23/1 14/24/1
f 19/23/6 6/26/6 7/25/6
f 6/26/6 19/23/6 12/15/6
f 12/15/6 19/23/6 18/24/6

usemtl green

f 4/4/1 9/21/1 2/2/1
f 9/21/1 4/4/1 20/23/1
f 17/4/6 7/25/6 8/18/6
f 7/25/6 17/4/6 19/23/6
f 23/29/9 22/28/8 21/27/7
f 22/28/8 23/29/9 24/30/10
f 22/28/8 24/30/10 25/31/11
f 25/31/11 24/30/10 26/32/12
f 25/31/11 26/32/12 27/33/13
f 27/33/13 26/32/12 28/34/14
f 27/33/13 28/34/14 29/35/15
f 29/35/15 28/34/14 30/36/16
f 29/35/15 30/36/16 31/37/17
f 31/37/17 30/36/16 32/38/18
f 31/37/17 32/38/18 33/39/19
f 33/39/19 32/38/18 34/40/20
f 33/39/19 34/40/20 35/41/21
f 35/41/21 34/40/20 36/42/22
f 35/41/21 36/42/22 37/43/23
f 37/43/23 36/42/22 38/44/24
f 37/43/23 38/44/24 39/45/25
f 39/45/25 38/44/24 40/46/26
f 39/45/25 40/46/26 41/47/27
f 41/47/27 40/46/26 42/48/28
f 41/47/27 42/48/28 43/49/29
f 43/49/29 42/48/28 44/50/30
f 33/53/19 46/52/32 45/51/31
f 46/52/32 33/53/19 35/54/21
f 47/52/33 38/53/24 36/54/22
f 38/53/24 47/52/33 48/51/34
f 41/54/27 49/51/35 39/53/25
f 49/51/35 41/54/27 50/52/36
f 51/52/37 36/53/22 34/54/20
f 36/53/22 51/52/37 47/51/33
f 52/52/38 42/53/28 40/54/26
f 42/53/28 52/52/38 53/51/39
f 44/54/30 54/51/40 43/53/29
f 54/51/40 44/54/30 55/52/41
f 31/53/17 45/52/31 56/51/42
f 45/52/31 31/53/17 33/54/19
f 51/51/37 32/54/18 57/52/43
f 32/54/18 51/51/37 34/53/20
f 37/54/23 46/51/32 35/53/21
f 46/51/32 37/54/23 58/52/44
f 39/54/25 58/51/44 37/53/23
f 58/51/44 39/54/25 49/52/35
f 43/54/29 50/51/36 41/53/27
f 50/51/36 43/54/29 54/52/40
f 27/53/13 60/52/46 59/51/45
f 60/52/46 27/53/13 29/54/15
f 53/52/39 44/53/30 42/54/28
f 44/53/30 53/52/39 55/51/41
f 62/51/48 24/54/10 61/52/47
f 24/54/10 62/51/48 26/53/12
f 29/53/15 56/52/42 60/51/46
f 56/52/42 29/53/15 31/54/17
f 25/53/11 59/52/45 63/51/49
f 59/52/45 25/53/11 27/54/13
f 22/53/8 63/52/49 64/51/50
f 63/52/49 22/53/8 25/54/11
f 21/53/7 64/52/50 65/51/51
f 64/52/50 21/53/7 22/54/8
f 66/51/52 21/54/7 65/52/51
f 21/54/7 66/51/52 23/53/9
f 61/51/47 23/54/9 66/52/52
f 23/54/9 61/51/47 24/53/10
f 67/51/53 26/54/12 62/52/48
f 26/54/12 67/51/53 28/53/14
f 68/51/54 28/54/14 67/52/53
f 28/54/14 68/51/54 30/53/16
f 57/51/43 30/54/16 68/52/54
f 30/54/16 57/51/43 32/53/18
f 48/52/34 40/53/26 38/54/24
f 40/53/26 48/52/34 52/51/38
f 66/56/52 19/10/4 61/55/47
f 61/55/47 19/10/4 62/57/48
f 62/57/48 19/10/4 67/58/53
f 67/58/53 19/10/4 17/7/4
f 67/58/53 17/7/4 68/59/54
f 68/59/54 17/7/4 57/60/43
f 19/10/4 66/56/52 4/11/4
f 57/60/43 17/7/4 51/61/37
f 4/11/4 66/56/52 65/62/51
f 51/61/37 17/7/4 47/63/33
f 64/64/50 4/11/4 65/62/51
f 47/63/33 17/7/4 48/65/34
f 63/66/49 4/11/4 64/64/50
f 59/67/45 4/11/4 63/66/49
f 60/68/46 4/11/4 59/67/45
f 4/11/4 60/68/46 20/9/4
f 20/9/4 60/68/46 56/69/42
f 20/9/4 56/69/42 45/70/31
f 48/65/34 17/7/4 52/71/38
f 52/71/38 17/7/4 53/72/39
f 53/72/39 17/7/4 55/73/41
f 20/9/4 55/73/41 17/7/4
f 20/9/4 45/70/31 46/74/32
f 20/9/4 54/75/40 55/73/41
f 20/9/4 46/74/32 58/76/44
f 20/9/4 50/77/36 54/75/40
f 20/9/4 58/76/44 49/78/35
f 20/9/4 49/78/35 50/77/36

