# Created by Kenney (www.kenney.nl)

mtllib bumpDown.mtl

g bumpDown

v 0.49995 0 0.49995
v -0.49995 0 0.49995
v 0.49995 0.063327 0.49995
v -0.49995 0.063327 0.49995
v 0.49995 0 -0.49995
v -0.49995 0 -0.49995
v 0.49995 0.063327 -0.49995
v -0.49995 0.063327 -0.49995
v 0.149985 0.029997 0
v 0.1448744 0.029997 0.03881897
v 0.1448744 0.029997 -0.03881897
v 0.1298908 0.029997 -0.07499249
v 0.1298908 0.029997 0.07499249
v 0.1060554 0.029997 -0.1060554
v 0.1060554 0.029997 0.1060554
v 0.07499249 0.029997 -0.1298908
v 0.07499249 0.029997 0.1298908
v 0.03881897 0.029997 -0.1448744
v 0.03881897 0.029997 0.1448744
v 3.060904E-13 0.029997 -0.149985
v 3.060904E-13 0.029997 0.149985
v -0.03881897 0.029997 -0.1448744
v -0.03881897 0.029997 0.1448744
v -0.07499249 0.029997 -0.1298908
v -0.07499249 0.029997 0.1298908
v -0.1060554 0.029997 -0.1060554
v -0.1060554 0.029997 0.1060554
v -0.1298908 0.029997 -0.07499249
v -0.1298908 0.029997 0.07499249
v -0.1448744 0.029997 -0.03881897
v -0.1448744 0.029997 0.03881897
v -0.149985 0.029997 0
v 3.104219E-13 0.063327 0.29997
v -0.07763795 0.063327 0.2897488
v -0.149985 0.063327 -0.2597817
v -0.2121108 0.063327 -0.2121108
v -0.2121108 0.063327 0.2121108
v -0.2597817 0.063327 0.149985
v -0.07763795 0.063327 -0.2897488
v -0.2597817 0.063327 -0.149985
v -0.2897488 0.063327 -0.07763795
v -0.2897488 0.063327 0.07763795
v -0.29997 0.063327 0
v 0.07763795 0.063327 0.2897488
v 3.104219E-13 0.063327 -0.29997
v -0.149985 0.063327 0.2597817
v 0.2121108 0.063327 0.2121108
v 0.149985 0.063327 0.2597817
v 0.2597817 0.063327 -0.149985
v 0.2121108 0.063327 -0.2121108
v 0.2597817 0.063327 0.149985
v 0.2897488 0.063327 0.07763795
v 0.29997 0.063327 0
v 0.2897488 0.063327 -0.07763795
v 0.149985 0.063327 -0.2597817
v 0.07763795 0.063327 -0.2897488

vn 0 0 1
vn 0 -1 0
vn 1 0 0
vn -1 0 0
vn 0 0 -1
vn -0.1180831 0.9930038 0
vn -0.1140595 0.9930038 -0.03056214
vn -0.1140595 0.9930038 0.03056214
vn -0.1022629 0.9930038 0.05904153
vn -0.1022629 0.9930038 -0.05904153
vn -0.08349732 0.9930038 0.08349732
vn -0.08349732 0.9930038 -0.08349732
vn -0.05904153 0.9930038 0.1022629
vn -0.05904153 0.9930038 -0.1022629
vn -0.03056214 0.9930038 0.1140595
vn -0.03056214 0.9930038 -0.1140595
vn 0 0.9930038 0.1180831
vn 0 0.9930038 -0.1180831
vn 0.03056214 0.9930038 0.1140595
vn 0.03056214 0.9930038 -0.1140595
vn 0.05904153 0.9930038 0.1022629
vn 0.05904153 0.9930038 -0.1022629
vn 0.08349732 0.9930038 0.08349732
vn 0.08349732 0.9930038 -0.08349732
vn 0.1022629 0.9930038 0.05904153
vn 0.1022629 0.9930038 -0.05904153
vn 0.1140595 0.9930038 0.03056214
vn 0.1140595 0.9930038 -0.03056214
vn 0.1180831 0.9930038 0
vn 0 0.9949758 -0.1001153
vn 0.02591175 0.9949758 -0.09670398
vn 0.05005767 0.9949758 0.08670242
vn 0.07079223 0.9949758 0.07079223
vn 0.07079223 0.9949758 -0.07079223
vn 0.08670242 0.9949758 -0.05005767
vn 0.02591175 0.9949758 0.09670398
vn 0.08670242 0.9949758 0.05005767
vn 0.09670398 0.9949758 0.02591175
vn 0.09670398 0.9949758 -0.02591175
vn 0.1001153 0.9949758 0
vn -0.02591175 0.9949758 -0.09670398
vn 0 0.9949758 0.1001153
vn 0.05005767 0.9949758 -0.08670242
vn -0.07079223 0.9949758 -0.07079223
vn -0.05005767 0.9949758 -0.08670242
vn -0.08670242 0.9949758 0.05005767
vn -0.07079223 0.9949758 0.07079223
vn -0.08670242 0.9949758 -0.05005767
vn -0.09670398 0.9949758 -0.02591175
vn -0.1001153 0.9949758 0
vn -0.09670398 0.9949758 0.02591175
vn -0.05005767 0.9949758 0.08670242
vn -0.02591175 0.9949758 0.09670398
vn 0 1 0

vt 19.68307 1.994306E-13
vt -19.68307 1.994306E-13
vt 19.68307 2.493189
vt -19.68307 2.493189
vt 19.68307 -19.68307
vt -19.68307 -19.68307
vt 19.68307 19.68307
vt -19.68307 19.68307
vt 19.68307 0
vt -19.68307 0
vt 19.68307 -5.358051E-29
vt -19.68307 -5.358051E-29
vt -5.904921 0
vt -5.703716 1.528306
vt -5.703716 -1.528306
vt -5.113812 -2.952461
vt -5.113812 2.952461
vt -4.17541 -4.17541
vt -4.17541 4.17541
vt -2.952461 -5.113812
vt -2.952461 5.113812
vt -1.528306 -5.703716
vt -1.528306 5.703716
vt -1.20508E-11 -5.904921
vt -1.20508E-11 5.904921
vt 1.528306 -5.703716
vt 1.528306 5.703716
vt 2.952461 -5.113812
vt 2.952461 5.113812
vt 4.17541 -4.17541
vt 4.17541 4.17541
vt 5.113812 -2.952461
vt 5.113812 2.952461
vt 5.703716 -1.528306
vt 5.703716 1.528306
vt 5.904921 0
vt -1.541494 11.97062
vt 1.541494 11.97062
vt -0.7707469 5.970961
vt 0.7707469 5.970961
vt -10.22762 -5.904921
vt -11.40743 -3.056612
vt -8.35082 -8.35082
vt -5.904921 -10.22762
vt -3.056612 -11.40743
vt -1.222134E-11 -11.80984
vt -11.80984 0
vt 3.056612 -11.40743
vt -11.40743 3.056612
vt 5.904921 -10.22762
vt -10.22762 5.904921
vt 8.35082 -8.35082
vt -8.35082 8.35082
vt -5.904921 10.22762
vt -3.056612 11.40743
vt -1.222134E-11 11.80984
vt 10.22762 -5.904921
vt 11.40743 -3.056612
vt 11.80984 0
vt 3.056612 11.40743
vt 11.40743 3.056612
vt 5.904921 10.22762
vt 10.22762 5.904921
vt 8.35082 8.35082

usemtl green

f 3/3/1 2/2/1 1/1/1
f 2/2/1 3/3/1 4/4/1
f 1/7/2 6/6/2 5/5/2
f 6/6/2 1/7/2 2/8/2
f 3/4/3 5/9/3 7/3/3
f 5/9/3 3/4/3 1/10/3
f 2/9/4 8/4/4 6/10/4
f 8/4/4 2/9/4 4/3/4
f 8/3/5 5/12/5 6/11/5
f 5/12/5 8/3/5 7/4/5
f 11/15/8 10/14/7 9/13/6
f 10/14/7 11/15/8 12/16/9
f 10/14/7 12/16/9 13/17/10
f 13/17/10 12/16/9 14/18/11
f 13/17/10 14/18/11 15/19/12
f 15/19/12 14/18/11 16/20/13
f 15/19/12 16/20/13 17/21/14
f 17/21/14 16/20/13 18/22/15
f 17/21/14 18/22/15 19/23/16
f 19/23/16 18/22/15 20/24/17
f 19/23/16 20/24/17 21/25/18
f 21/25/18 20/24/17 22/26/19
f 21/25/18 22/26/19 23/27/20
f 23/27/20 22/26/19 24/28/21
f 23/27/20 24/28/21 25/29/22
f 25/29/22 24/28/21 26/30/23
f 25/29/22 26/30/23 27/31/24
f 27/31/24 26/30/23 28/32/25
f 27/31/24 28/32/25 29/33/26
f 29/33/26 28/32/25 30/34/27
f 29/33/26 30/34/27 31/35/28
f 31/35/28 30/34/27 32/36/29
f 21/39/18 34/38/31 33/37/30
f 34/38/31 21/39/18 23/40/20
f 35/38/32 26/39/23 24/40/21
f 26/39/23 35/38/32 36/37/33
f 29/40/26 37/37/34 27/39/24
f 37/37/34 29/40/26 38/38/35
f 39/38/36 24/39/21 22/40/19
f 24/39/21 39/38/36 35/37/32
f 40/38/37 30/39/27 28/40/25
f 30/39/27 40/38/37 41/37/38
f 32/40/29 42/37/39 31/39/28
f 42/37/39 32/40/29 43/38/40
f 19/39/16 33/38/30 44/37/41
f 33/38/30 19/39/16 21/40/18
f 39/37/36 20/40/17 45/38/42
f 20/40/17 39/37/36 22/39/19
f 25/40/22 34/37/31 23/39/20
f 34/37/31 25/40/22 46/38/43
f 27/40/24 46/37/43 25/39/22
f 46/37/43 27/40/24 37/38/34
f 31/40/28 38/37/35 29/39/26
f 38/37/35 31/40/28 42/38/39
f 15/39/12 48/38/45 47/37/44
f 48/38/45 15/39/12 17/40/14
f 41/38/38 32/39/29 30/40/27
f 32/39/29 41/38/38 43/37/40
f 50/37/47 12/40/9 49/38/46
f 12/40/9 50/37/47 14/39/11
f 17/39/14 44/38/41 48/37/45
f 44/38/41 17/39/14 19/40/16
f 13/39/10 47/38/44 51/37/48
f 47/38/44 13/39/10 15/40/12
f 10/39/7 51/38/48 52/37/49
f 51/38/48 10/39/7 13/40/10
f 9/39/6 52/38/49 53/37/50
f 52/38/49 9/39/6 10/40/7
f 54/37/51 9/40/6 53/38/50
f 9/40/6 54/37/51 11/39/8
f 49/37/46 11/40/8 54/38/51
f 11/40/8 49/37/46 12/39/9
f 55/37/52 14/40/11 50/38/47
f 14/40/11 55/37/52 16/39/13
f 56/37/53 16/40/13 55/38/52
f 16/40/13 56/37/53 18/39/15
f 45/37/42 18/40/15 56/38/53
f 18/40/15 45/37/42 20/39/17
f 36/38/33 28/39/25 26/40/23
f 28/39/25 36/38/33 40/37/37
f 54/42/51 7/6/54 49/41/46
f 7/6/54 54/42/51 3/8/54
f 49/41/46 7/6/54 50/43/47
f 50/43/47 7/6/54 55/44/52
f 55/44/52 7/6/54 56/45/53
f 56/45/53 7/6/54 8/5/54
f 56/45/53 8/5/54 45/46/42
f 3/8/54 54/42/51 53/47/50
f 45/46/42 8/5/54 39/48/36
f 52/49/49 3/8/54 53/47/50
f 39/48/36 8/5/54 35/50/32
f 51/51/48 3/8/54 52/49/49
f 35/50/32 8/5/54 36/52/33
f 47/53/44 3/8/54 51/51/48
f 48/54/45 3/8/54 47/53/44
f 44/55/41 3/8/54 48/54/45
f 3/8/54 44/55/41 4/7/54
f 4/7/54 44/55/41 33/56/30
f 36/52/33 8/5/54 40/57/37
f 40/57/37 8/5/54 41/58/38
f 41/58/38 8/5/54 43/59/40
f 4/7/54 43/59/40 8/5/54
f 4/7/54 33/56/30 34/60/31
f 4/7/54 42/61/39 43/59/40
f 4/7/54 34/60/31 46/62/43
f 4/7/54 38/63/35 42/61/39
f 4/7/54 46/62/43 37/64/34
f 4/7/54 37/64/34 38/63/35

