# Created by Kenney (www.kenney.nl)

mtllib flag_blue.mtl

g flag_blue

v 0.016665 0 0.016665
v 0.016665 0 -0.016665
v -0.016665 0 0.016665
v -0.016665 0 -0.016665
v 0.016665 1.049895 -0.016665
v 0.016665 1.049895 0.016665
v -0.016665 1.049895 -0.016665
v -0.016665 1.049895 0.016665
v -0.016665 0.7967532 -0.0083325
v -0.016665 0.7967532 0.0083325
v -0.016665 1.041562 -0.0083325
v -0.016665 1.041562 0.0083325
v -0.349965 0.9191579 -1.443823E-15

vn 0 -0.5 0
vn 0 0.5 0
vn 0 0 0.5
vn 0.5 0 0
vn 0 0 -0.5
vn -0.5 0 0
vn -0.1723689 0.4693495 0
vn -0.1723689 -0.4693495 0
vn -0.0124961 0 -0.4998438
vn -0.0124961 0 0.4998438

vt 1.312205 1.312205
vt 1.312205 -1.312205
vt -1.312205 1.312205
vt -1.312205 -1.312205
vt 1.312205 0
vt -1.312205 0
vt 1.312205 82.6689
vt -1.312205 82.6689
vt -0.6561024 62.73647
vt 0.6561024 62.73647
vt -0.6561024 82.01279
vt 0.6561024 82.01279
vt -0.6561024 27.04115
vt 0.6561024 27.04115
vt -1.136868E-13 -0.9167939
vt 0.6561024 22.8594
vt -0.6561024 22.8594
vt -1.136868E-13 50.81735
vt 27.54769 72.37463
vt 1.295397 62.73647
vt 1.295397 82.01279
vt -1.295397 62.73647
vt -27.54769 72.37463
vt -1.295397 82.01279

usemtl metal

f 3/3/1 2/2/1 1/1/1
f 2/2/1 3/3/1 4/4/1
f 7/2/2 6/3/2 5/4/2
f 6/3/2 7/2/2 8/1/2
f 6/7/3 3/6/3 1/5/3
f 3/6/3 6/7/3 8/8/3
f 6/8/4 2/5/4 5/7/4
f 2/5/4 6/8/4 1/6/4
f 7/7/5 2/6/5 4/5/5
f 2/6/5 7/7/5 5/8/5
f 3/5/6 7/8/6 4/6/6
f 7/8/6 3/5/6 9/9/6
f 9/9/6 3/5/6 10/10/6
f 11/11/6 7/8/6 9/9/6
f 10/10/6 3/5/6 12/12/6
f 7/8/6 11/11/6 8/7/6
f 8/7/6 11/11/6 12/12/6
f 8/7/6 12/12/6 3/5/6

usemtl blue

f 13/15/7 12/14/7 11/13/7
f 13/18/8 9/17/8 10/16/8
f 11/21/9 9/20/9 13/19/9
f 12/24/10 13/23/10 10/22/10

