# Created by Kenney (www.kenney.nl)

mtllib hillCorner.mtl

g hillCorner

v 0.39996 0.146652 0.39996
v 0.1230646 0.146652 0.39996
v 0.39996 0.279972 0.39996
v 0.39996 0.146652 0.1230646
v 0.49995 0 -0.49995
v 0.39996 0 -0.49995
v 0.49995 0 0.49995
v -0.49995 0 0.49995
v -0.49995 0 0.39996
v -0.49995 0 -0.49995
v 0.49995 0.146652 -0.49995
v 0.49995 0.146652 0.49995
v -0.49995 0.063327 0.39996
v -0.49995 0.146652 0.39996
v -0.49995 0.146652 0.49995
v 0.39996 0.146652 -0.49995
v 0.39996 0.063327 -0.49995
v -0.049995 0.063327 0.39996
v 0.39996 0.063327 -0.049995
v 0.39996 0.063327 0.39996
v -0.49995 0.063327 -0.49995

vn 0 0 1
vn 1 0 0
vn 0 -1 0
vn -1 0 0
vn 0 1 0
vn 0 0 -1
vn -0.3979799 0.8265736 -0.3979799

vt 15.74646 5.773701
vt 4.845064 5.773701
vt 15.74646 11.02252
vt -15.74646 11.02252
vt -4.845064 5.773701
vt -15.74646 5.773701
vt 19.68307 -19.68307
vt 15.74646 -19.68307
vt 19.68307 19.68307
vt -19.68307 19.68307
vt -19.68307 15.74646
vt -19.68307 -19.68307
vt 19.68307 5.773701
vt 19.68307 -2.529061E-14
vt -19.68307 5.773701
vt -19.68307 -2.529061E-14
vt 15.74646 -1.676378E-27
vt 15.74646 2.493189
vt 19.68307 -1.676378E-27
vt -15.74646 -19.68307
vt -15.74646 15.74646
vt -15.74646 4.845064
vt -4.845064 15.74646
vt 19.68307 15.74646
vt 19.68307 1.426637E-13
vt -19.68307 1.426637E-13
vt -15.74646 2.492883E-14
vt -19.68307 1.53655E-14
vt -15.74646 2.493189
vt 19.68307 2.493189
vt 1.968307 2.493189
vt -19.68307 2.493189
vt -1.968307 2.493189
vt 15.74646 0
vt 19.68307 2.492883E-14
vt -19.68307 0
vt -15.74646 -1.968307
vt 1.968307 15.74646
vt -12.52623 9.456233
vt -7.708449 15.28485
vt 12.52623 9.456233
vt 1.613121E-11 24.61064
vt 7.708449 15.28485

usemtl border

f 3/3/1 2/2/1 1/1/1
f 1/6/2 4/5/2 3/4/2
f 7/9/3 6/8/3 5/7/3
f 6/8/3 7/9/3 8/10/3
f 6/8/3 8/10/3 9/11/3
f 6/8/3 9/11/3 10/12/3
f 12/15/2 5/14/2 11/13/2
f 5/14/2 12/15/2 7/16/2
f 8/19/4 13/18/4 9/17/4
f 13/18/4 8/19/4 14/1/4
f 14/1/4 8/19/4 15/13/4
f 16/20/5 12/10/5 11/12/5
f 12/10/5 16/20/5 1/21/5
f 1/21/5 16/20/5 4/22/5
f 12/10/5 1/21/5 15/9/5
f 15/9/5 1/21/5 2/23/5
f 15/9/5 2/23/5 14/24/5
f 12/13/1 8/26/1 7/25/1
f 8/26/1 12/13/1 15/15/1
f 17/29/6 5/28/6 6/27/6
f 5/28/6 17/29/6 11/15/6
f 11/15/6 17/29/6 16/6/6
f 14/13/6 18/31/6 13/30/6
f 18/31/6 14/13/6 2/5/6
f 19/33/4 16/15/4 17/32/4
f 16/15/4 19/33/4 4/2/4

usemtl _defaultMat

f 18/8/5 20/11/5 19/12/5
f 20/15/4 4/29/4 19/6/4
f 4/15/4 20/29/4 1/6/4
f 2/32/6 20/34/6 18/18/6
f 20/32/6 2/34/6 1/18/6

usemtl green

f 21/30/6 6/27/6 10/35/6
f 6/27/6 21/30/6 17/29/6
f 9/17/4 21/32/4 10/36/4
f 21/32/4 9/17/4 13/18/4
f 21/7/5 19/37/5 17/20/5
f 19/37/5 21/7/5 18/38/5
f 18/38/5 21/7/5 13/24/5
f 18/41/7 4/40/7 19/39/7
f 4/40/7 18/41/7 3/42/7
f 3/42/7 18/41/7 2/43/7

