# Created by Kenney (www.kenney.nl)

mtllib hillSquare.mtl

g hillSquare

v 0.49995 0 0.49995
v 0.39996 0 0.49995
v 0.49995 0.146652 0.49995
v 0.39996 0.063327 0.49995
v 0.39996 0.146652 0.49995
v 0.49995 0.146652 -0.49995
v 0.49995 0 -0.49995
v -0.39996 0.146652 -0.49995
v -0.39996 0.146652 -0.1249875
v -0.49995 0.146652 -0.49995
v -0.39996 0.146652 0.1249875
v -0.39996 0.146652 0.49995
v -0.49995 0.146652 0.49995
v -0.49995 0 -0.49995
v -0.49995 0 0.49995
v -0.39996 0 -0.49995
v -0.39996 0.063327 -0.49995
v 0.39996 0.146652 -0.49995
v 0.39996 0.146652 0.1249875
v 0.39996 0.146652 -0.1249875
v -0.39996 0.063327 -0.249975
v -0.39996 0 0.49995
v -0.39996 0.063327 0.49995
v 0.39996 0 -0.49995
v 0.39996 0.063327 -0.49995
v 0.39996 0.063327 -0.249975
v 0.39996 0.063327 0.249975
v -0.39996 0.063327 0.249975

vn 0 0 1
vn 1 0 0
vn 0 1 0
vn -1 0 0
vn 0 0 -1
vn 0 -1 0
vn 0 0.957092 -0.2897842
vn 0 0.957092 0.2897842

vt 19.68307 1.152413E-14
vt 15.74646 1.152413E-14
vt 19.68307 5.773701
vt 15.74646 2.493189
vt 15.74646 5.773701
vt 19.68307 0
vt -19.68307 5.773701
vt -19.68307 0
vt 15.74646 -19.68307
vt 15.74646 -4.920768
vt 19.68307 -19.68307
vt 15.74646 4.920768
vt 15.74646 19.68307
vt 19.68307 19.68307
vt 19.68307 -3.155405E-31
vt 15.74646 -3.155405E-31
vt -19.68307 -19.68307
vt -19.68307 19.68307
vt -15.74646 -19.68307
vt -15.74646 4.920768
vt -15.74646 19.68307
vt -15.74646 -4.920768
vt 19.68307 2.493189
vt 4.920768 5.773701
vt 9.841536 2.493189
vt -15.74646 5.608987E-14
vt -19.68307 1.152413E-14
vt -15.74646 2.493189
vt -15.74646 5.773701
vt -15.74646 1.53655E-14
vt -19.68307 1.53655E-14
vt -19.68307 2.493189
vt -9.841536 2.493189
vt -4.920768 5.773701
vt -15.74646 -9.841536
vt 15.74646 -9.841536
vt 15.74646 -0.8916532
vt 15.74646 -6.80568
vt -15.74646 -0.8916532
vt -15.74646 -6.80568
vt -15.74646 9.841536
vt 15.74646 9.841536

usemtl border

f 3/3/1 2/2/1 1/1/1
f 2/2/1 3/3/1 4/4/1
f 4/4/1 3/3/1 5/5/1
f 3/7/2 7/6/2 6/3/2
f 7/6/2 3/7/2 1/8/2
f 10/11/3 9/10/3 8/9/3
f 9/10/3 10/11/3 11/12/3
f 11/12/3 10/11/3 12/13/3
f 12/13/3 10/11/3 13/14/3
f 15/6/4 10/7/4 14/8/4
f 10/7/4 15/6/4 13/3/4
f 10/3/5 16/16/5 14/15/5
f 16/16/5 10/3/5 17/4/5
f 17/4/5 10/3/5 8/5/5
f 18/19/3 3/18/3 6/17/3
f 3/18/3 18/19/3 19/20/3
f 3/18/3 19/20/3 5/21/3
f 19/20/3 18/19/3 20/22/3
f 9/24/2 17/23/2 8/3/2
f 17/23/2 9/24/2 21/25/2
f 23/28/1 15/27/1 22/26/1
f 15/27/1 23/28/1 13/7/1
f 13/7/1 23/28/1 12/29/1
f 25/28/5 7/31/5 24/30/5
f 7/31/5 25/28/5 6/7/5
f 6/7/5 25/28/5 18/29/5
f 26/33/4 18/7/4 25/32/4
f 18/7/4 26/33/4 20/34/4
f 27/25/4 5/3/4 19/24/4
f 5/3/4 27/25/4 4/23/4
f 28/25/4 9/34/4 21/33/4
f 9/34/4 28/25/4 11/24/4
f 12/7/2 28/33/2 11/34/2
f 28/33/2 12/7/2 23/32/2
f 1/14/6 24/9/6 7/11/6
f 24/9/6 1/14/6 2/13/6
f 24/9/6 2/13/6 16/19/6
f 16/19/6 2/13/6 22/21/6
f 16/19/6 22/21/6 14/17/6
f 14/17/6 22/21/6 15/18/6

usemtl green

f 4/4/1 22/26/1 2/2/1
f 22/26/1 4/4/1 23/28/1
f 17/4/5 24/30/5 16/16/5
f 24/30/5 17/4/5 25/28/5
f 17/9/3 26/35/7 25/19/3
f 26/35/7 17/9/3 21/36/7
f 11/39/8 27/38/8 19/37/8
f 27/38/8 11/39/8 28/40/8
f 21/38/7 20/39/7 26/40/7
f 20/39/7 21/38/7 9/37/7
f 28/42/8 4/21/3 27/41/8
f 4/21/3 28/42/8 23/13/3
f 9/10/7 19/20/8 20/22/7
f 19/20/8 9/10/7 11/12/8

