# Created by Kenney (www.kenney.nl)

mtllib obstacleDiamond.mtl

g obstacleDiamond

v 0.49995 0 0.49995
v -0.49995 0 0.49995
v 0.49995 0.063327 0.49995
v -0.49995 0.063327 0.49995
v 0.49995 0 -0.49995
v -0.49995 0 -0.49995
v 0.49995 0.063327 -0.49995
v -0.49995 0.063327 -0.49995
v 0.2652685 0.063327 -2.165734E-13
v -2.021352E-13 0.063327 0.2652685
v 2.252364E-13 0.063327 -0.2652685
v -0.2652685 0.063327 2.136858E-13
v 0.2652685 0.146652 -2.165734E-13
v -2.021352E-13 0.146652 0.2652685
v 2.252364E-13 0.146652 -0.2652685
v -0.2652685 0.146652 2.136858E-13

vn 0 0 1
vn 0 -1 0
vn 1 0 0
vn -1 0 0
vn 0 0 -1
vn 0 1 0
vn 0.7071068 0 -0.7071068
vn -0.7071068 0 -0.7071068
vn -0.7071068 0 0.7071068
vn 0.7071068 0 0.7071068

vt 19.68307 9.971532E-14
vt -19.68307 9.971532E-14
vt 19.68307 2.493189
vt -19.68307 2.493189
vt 19.68307 19.68307
vt 19.68307 -19.68307
vt -19.68307 19.68307
vt -19.68307 -19.68307
vt 19.68307 2.140057E-29
vt -19.68307 2.140057E-29
vt -19.68307 2.917748E-15
vt 19.68307 2.917748E-15
vt -10.44364 -8.526513E-12
vt 7.958079E-12 10.44364
vt -8.867573E-12 -10.44364
vt 10.44364 8.412826E-12
vt 7.384769 5.773701
vt 7.384769 2.493189
vt -7.384769 5.773701
vt -7.384769 2.493189

usemtl green

f 3/3/1 2/2/1 1/1/1
f 2/2/1 3/3/1 4/4/1
f 2/7/2 5/6/2 1/5/2
f 5/6/2 2/7/2 6/8/2
f 3/4/3 5/9/3 7/3/3
f 5/9/3 3/4/3 1/10/3
f 2/12/4 8/4/4 6/11/4
f 8/4/4 2/12/4 4/3/4
f 8/3/5 5/2/5 6/1/5
f 5/2/5 8/3/5 7/4/5
f 7/8/6 9/13/6 3/7/6
f 10/14/6 3/7/6 9/13/6
f 9/13/6 7/8/6 11/15/6
f 3/7/6 10/14/6 4/5/6
f 11/15/6 7/8/6 8/6/6
f 4/5/6 10/14/6 12/16/6
f 11/15/6 8/6/6 12/16/6
f 4/5/6 12/16/6 8/6/6

usemtl border

f 15/15/6 14/14/6 13/13/6
f 14/14/6 15/15/6 16/16/6
f 13/19/7 11/18/7 15/17/7
f 11/18/7 13/19/7 9/20/7
f 12/18/8 15/19/8 11/20/8
f 15/19/8 12/18/8 16/17/8
f 10/18/9 16/19/9 12/20/9
f 16/19/9 10/18/9 14/17/9
f 14/19/10 9/18/10 13/17/10
f 9/18/10 14/19/10 10/20/10

