# Created by Kenney (www.kenney.nl)

mtllib rampLargeSide.mtl

g rampLargeSide

v 0.39995 0.5 0.9999
v -0.49995 0.5 0.9999
v 0.39995 0.563327 0.9999
v -0.49995 0.563327 0.9999
v 0.39995 2.18642E-17 -0.9999
v 0.39995 0.063327 -0.9999
v -0.49995 9.023893E-17 -0.9999
v -0.49995 0.063327 -0.9999
v 0.39995 0.239327 -0.2239776
v 0.39995 0.275952 -0.1123638
v -0.49995 0.239327 -0.2239776
v -0.49995 0.275952 -0.1123638
v 0.39995 0.485202 0.5468203
v 0.39995 0.511327 0.6479352
v -0.49995 0.485202 0.5468203
v -0.49995 0.511327 0.6479352
v 0.39995 0.313327 2.887646E-15
v 0.39995 0.350702 0.1123638
v -0.49995 0.350702 0.1123638
v -0.49995 0.313327 -5.414336E-16
v 0.39995 0.077327 -0.8359164
v -0.49995 0.077327 -0.8359164
v 0.39995 0.066952 -0.9212828
v -0.49995 0.066952 -0.9212828
v 0.39995 0.455327 0.4419558
v -0.49995 0.455327 0.4419558
v 0.39995 0.093702 -0.7445505
v 0.39995 0.115327 -0.6479352
v -0.49995 0.093702 -0.7445505
v -0.49995 0.115327 -0.6479352
v 0.39995 0.559702 0.9212828
v -0.49995 0.559702 0.9212828
v 0.39995 0.204202 -0.3340916
v -0.49995 0.204202 -0.3340916
v 0.39995 0.549327 0.8359164
v -0.49995 0.549327 0.8359164
v 0.39995 0.422452 0.3340916
v -0.49995 0.422452 0.3340916
v 0.39995 0.171327 -0.4419558
v -0.49995 0.171327 -0.4419558
v 0.39995 0.387327 0.2239776
v -0.49995 0.387327 0.2239776
v 0.39995 0.416675 0.3159812
v -0.49995 0.416675 0.3159812
v 0.39995 0.532952 0.7445505
v -0.49995 0.532952 0.7445505
v 0.39995 0.141452 -0.5468203
v -0.49995 0.141452 -0.5468203
v 0.39995 0.1548049 -0.49995
v -0.49995 0.1548049 -0.49995
v -0.49995 0.003625 -0.9212828
v -0.49995 0.014 -0.8359164
v -0.49995 0.030375 -0.7445505
v -0.49995 0.052 -0.6479352
v -0.49995 0.078125 -0.5468203
v -0.49995 0.09147795 -0.49995
v -0.49995 0.108 -0.4419558
v -0.49995 0.140875 -0.3340916
v -0.49995 0.146652 -0.3159812
v -0.49995 0.176 -0.2239776
v -0.49995 0.212625 -0.1123638
v -0.49995 0.25 -3.609557E-15
v -0.49995 0.287375 0.1123638
v -0.49995 0.324 0.2239776
v -0.49995 0.359125 0.3340916
v -0.49995 0.392 0.4419558
v -0.49995 0.4085221 0.49995
v -0.49995 0.421875 0.5468203
v -0.49995 0.448 0.6479352
v -0.49995 0.469625 0.7445505
v -0.49995 0.486 0.8359164
v -0.49995 0.496375 0.9212828
v 0.49995 0 -0.9999
v 0.49995 0.146652 -0.9999
v 0.39995 0.146652 -0.9999
v 0.39995 0.150277 -0.9212828
v 0.39995 0.160652 -0.8359164
v 0.39995 0.177027 -0.7445505
v 0.39995 0.198652 -0.6479352
v 0.39995 0.224777 -0.5468203
v 0.39995 0.2381299 -0.49995
v 0.39995 0.254652 -0.4419558
v 0.39995 0.287527 -0.3340916
v 0.39995 0.322652 -0.2239776
v 0.39995 0.359277 -0.1123638
v 0.39995 0.396652 2.887646E-15
v 0.39995 0.434027 0.1123638
v 0.39995 0.470652 0.2239776
v 0.39995 0.5 0.3159812
v 0.39995 0.5057769 0.3340916
v 0.39995 0.538652 0.4419558
v 0.39995 0.568527 0.5468203
v 0.39995 0.594652 0.6479352
v 0.39995 0.616277 0.7445505
v 0.39995 0.632652 0.8359164
v 0.39995 0.6430269 0.9212828
v 0.39995 0.646652 0.9999
v 0.49995 0.150277 -0.9212828
v 0.49995 0.108 -0.4419558
v 0.49995 0.09147795 -0.49995
v 0.49995 0.078125 -0.5468203
v 0.49995 0.434027 0.1123638
v 0.49995 0.470652 0.2239776
v 0.49995 0.052 -0.6479352
v 0.49995 0.030375 -0.7445505
v 0.49995 0.160652 -0.8359164
v 0.49995 0.632652 0.8359164
v 0.49995 0.6430269 0.9212828
v 0.49995 0.496375 0.9212828
v 0.49995 0.486 0.8359164
v 0.49995 0.014 -0.8359164
v 0.49995 0.003625 -0.9212828
v 0.49995 0.322652 -0.2239776
v 0.49995 0.359277 -0.1123638
v 0.49995 0.616277 0.7445505
v 0.49995 0.5 0.9999
v 0.49995 0.646652 0.9999
v 0.49995 0.469625 0.7445505
v 0.49995 0.287375 0.1123638
v 0.49995 0.25 3.609557E-15
v 0.49995 0.212625 -0.1123638
v 0.49995 0.177027 -0.7445505
v 0.49995 0.176 -0.2239776
v 0.49995 0.5 0.3159812
v 0.49995 0.5057769 0.3340916
v 0.49995 0.448 0.6479352
v 0.49995 0.421875 0.5468203
v 0.49995 0.392 0.4419558
v 0.49995 0.359125 0.3340916
v 0.49995 0.198652 -0.6479352
v 0.49995 0.224777 -0.5468203
v 0.49995 0.538652 0.4419558
v 0.49995 0.568527 0.5468203
v 0.49995 0.324 0.2239776
v 0.49995 0.594652 0.6479352
v 0.49995 0.146652 -0.3159812
v 0.49995 0.140875 -0.3340916
v 0.49995 0.2381299 -0.49995
v 0.49995 0.254652 -0.4419558
v 0.49995 0.287527 -0.3340916
v 0.49995 0.4085221 0.49995
v 0.49995 0.396652 3.609557E-15

vn 0 0 1
vn 0 0 -1
vn 0 0.9514366 -0.3078448
vn 0 0.9495209 -0.3137038
vn 0 0.9650428 -0.2620921
vn 0 0.9721596 -0.2343193
vn 0 0.9488847 -0.3156228
vn 0 0.9888991 -0.1485894
vn 0 0.996515 -0.08341227
vn 0 0.9591857 -0.2827771
vn 0 0.9803104 -0.1974628
vn 0 0.9989386 -0.0460606
vn 0 0.954651 -0.2977271
vn 0 0.9527038 -0.3039007
vn 0 0.9617327 -0.2739894
vn -1 0 0
vn 0 -0.9591857 0.2827771
vn 0 -0.9617327 0.2739894
vn 0 -0.9650428 0.2620921
vn 0 -0.9721596 0.2343193
vn 0 -0.9803104 0.1974628
vn 0 -0.996515 0.08341227
vn 0 -0.9888991 0.1485894
vn 0 -0.9495209 0.3137038
vn 0 -0.9488847 0.3156228
vn 0 -0.9514366 0.3078448
vn 0 -0.954651 0.2977271
vn 0 -0.9527038 0.3039007
vn 0 -0.9989386 0.0460606
vn 1 0 0

vt 15.74606 19.68504
vt -19.68307 19.68504
vt 15.74606 22.17823
vt -19.68307 22.17823
vt -15.74606 8.607952E-16
vt -15.74606 2.493189
vt 19.68307 3.552714E-15
vt 19.68307 2.493189
vt -15.74606 -5.44074
vt -15.74606 -0.815964
vt 19.68307 -5.44074
vt 19.68307 -0.815964
vt -15.74606 25.62245
vt -15.74606 29.73408
vt 19.68307 25.62245
vt 19.68307 29.73408
vt -15.74606 -0.7686422
vt -15.74606 3.893431
vt 19.68307 -0.7686422
vt -15.74606 8.555505
vt 19.68307 8.555505
vt 19.68307 3.893431
vt -15.74606 -32.30241
vt 19.68307 -32.30241
vt -15.74606 -35.68802
vt 19.68307 -35.68802
vt -15.74606 21.6456
vt -15.74606 25.93839
vt 19.68307 21.6456
vt 19.68307 25.93839
vt -15.74606 -27.79947
vt -15.74606 -23.9016
vt 19.68307 -27.79947
vt 19.68307 -23.9016
vt -15.74606 37.24745
vt -15.74606 40.3459
vt 19.68307 37.24745
vt 19.68307 40.3459
vt -15.74606 -5.537506
vt 19.68307 -5.537506
vt -15.74606 -10.08792
vt 19.68307 -10.08792
vt -15.74606 35.27894
vt -15.74606 38.66455
vt 19.68307 35.27894
vt 19.68307 38.66455
vt -15.74606 -31.85687
vt -15.74606 -28.20247
vt 19.68307 -31.85687
vt 19.68307 -28.20247
vt -15.74606 17.43072
vt -15.74606 21.8702
vt 19.68307 17.43072
vt 19.68307 21.8702
vt -15.74606 -14.67747
vt -15.74606 -10.23798
vt 19.68307 -14.67747
vt 19.68307 -10.23798
vt -15.74606 8.508106
vt -15.74606 13.13288
vt 19.68307 8.508106
vt 19.68307 13.13288
vt -15.74606 13.03517
vt -15.74606 16.83718
vt 19.68307 13.03517
vt -15.74606 17.58558
vt 19.68307 17.58558
vt 19.68307 16.83718
vt -15.74606 32.55484
vt -15.74606 36.20924
vt 19.68307 32.55484
vt 19.68307 36.20924
vt -15.74606 -39.20952
vt -15.74606 -36.11107
vt 19.68307 -39.20952
vt 19.68307 -36.11107
vt -15.74606 29.29037
vt -15.74606 33.18823
vt 19.68307 29.29037
vt 19.68307 33.18823
vt -15.74606 -23.5624
vt -15.74606 -19.45078
vt 19.68307 -23.5624
vt 19.68307 -19.45078
vt -15.74606 -19.17869
vt -15.74606 -17.25998
vt 19.68307 -19.17869
vt -15.74606 -14.88589
vt 19.68307 -14.88589
vt 19.68307 -17.25998
vt -39.36614 -2.533018E-14
vt -39.36614 2.493189
vt -36.27098 0.1427165
vt -36.27098 2.635906
vt -32.9101 0.5511811
vt -32.9101 3.04437
vt -29.31301 1.195866
vt -29.31301 3.689055
vt -25.50926 2.047244
vt -25.50926 4.540433
vt -21.52836 3.075787
vt -21.52836 5.568976
vt -19.68307 3.601494
vt -19.68307 6.094683
vt -17.39984 4.251968
vt -17.39984 6.745158
vt -13.15321 5.54626
vt -13.15321 8.039449
vt -12.4402 5.773701
vt -8.818016 9.422323
vt -8.818016 6.929134
vt -4.42377 8.371063
vt -4.42377 10.86425
vt -1.397573E-14 9.84252
vt 1.068165E-13 12.33571
vt 4.42377 11.31398
vt 4.42377 13.80717
vt 8.818016 12.75591
vt 8.818016 15.24909
vt 13.15321 14.13878
vt 12.4402 16.40453
vt 13.15321 16.63197
vt 17.39984 15.43307
vt 17.39984 17.92626
vt 19.68307 16.08355
vt 21.52836 19.10244
vt 21.52836 16.60925
vt 25.50926 17.63779
vt 25.50926 20.13098
vt 29.31301 18.48917
vt 29.31301 20.98236
vt 32.9101 19.13386
vt 32.9101 21.62705
vt 36.27098 19.54232
vt 36.27098 22.03551
vt 39.36614 19.68504
vt 39.36614 22.17823
vt -19.68307 7.189846E-30
vt -19.68307 5.773701
vt -15.74606 5.773701
vt -39.36614 5.773701
vt -36.27098 5.916417
vt -32.9101 6.324882
vt -29.31301 6.969567
vt -25.50926 7.820945
vt -21.52836 8.849488
vt -19.68307 9.375195
vt -17.39984 10.02567
vt -13.15321 11.31996
vt -8.818016 12.70284
vt -4.42377 14.14476
vt 2.0575E-14 12.33571
vt 2.0575E-14 15.61622
vt 4.42377 17.08768
vt 8.818016 18.52961
vt 12.4402 19.68504
vt 13.15321 19.91248
vt 17.39984 21.20677
vt 21.52836 22.38295
vt 25.50926 23.4115
vt 29.31301 24.26287
vt 32.9101 24.90756
vt 36.27098 25.31602
vt 39.36614 25.45874
vt -19.68307 -39.05842
vt -19.68307 -35.95997
vt -15.74606 -39.05842
vt -15.74606 -35.95997
vt 19.68307 -15.569
vt 19.68307 -17.94308
vt -19.68307 -15.569
vt 19.68307 -19.86179
vt -19.68307 -19.86179
vt -19.68307 -17.94308
vt -19.68307 9.530916
vt -19.68307 14.15569
vt -15.74606 9.530916
vt -15.74606 14.15569
vt 19.68307 -24.18609
vt -19.68307 -24.18609
vt 19.68307 -20.07446
vt -19.68307 -20.07446
vt 19.68307 -24.44617
vt 19.68307 -28.34403
vt -19.68307 -24.44617
vt -19.68307 -28.34403
vt -19.68307 -31.90662
vt -15.74606 -31.90662
vt -19.68307 -35.29224
vt -15.74606 -35.29224
vt -19.68307 35.67472
vt -19.68307 39.06034
vt -15.74606 35.67472
vt -15.74606 39.06034
vt 19.68307 38.36376
vt 19.68307 34.97815
vt -19.68307 38.36376
vt -19.68307 34.97815
vt 19.68307 -32.6032
vt 19.68307 -35.98882
vt -19.68307 -32.6032
vt -19.68307 -35.98882
vt -19.68307 -4.417931
vt -19.68307 0.2068456
vt -15.74606 -4.417931
vt -15.74606 0.2068456
vt -19.68307 33.13357
vt -19.68307 36.78797
vt -15.74606 33.13357
vt -15.74606 36.78797
vt 19.68307 19.68504
vt 19.68307 25.45874
vt 15.74606 25.45874
vt 19.68307 35.76941
vt 19.68307 32.11501
vt -19.68307 35.76941
vt -19.68307 32.11501
vt 19.68307 7.768597
vt 19.68307 3.106524
vt -19.68307 7.768597
vt -19.68307 -1.55555
vt -19.68307 3.106524
vt 19.68307 -1.55555
vt -19.68307 -31.27814
vt -19.68307 -27.62374
vt -15.74606 -31.27814
vt -15.74606 -27.62374
vt 19.68307 -1.593299
vt 19.68307 -6.218075
vt -19.68307 -1.593299
vt -19.68307 -6.218075
vt -19.68307 14.03212
vt -19.68307 17.83413
vt -15.74606 14.03212
vt -19.68307 18.58253
vt -15.74606 18.58253
vt -15.74606 17.83413
vt 19.68307 29.11039
vt 19.68307 24.99877
vt -19.68307 29.11039
vt -19.68307 24.99877
vt 19.68307 21.14333
vt 19.68307 16.70385
vt -19.68307 21.14333
vt -19.68307 16.70385
vt -19.68307 -27.08294
vt -19.68307 -23.18507
vt -15.74606 -27.08294
vt -15.74606 -23.18507
vt -19.68307 -22.74177
vt -19.68307 -18.63014
vt -15.74606 -22.74177
vt -15.74606 -18.63014
vt -19.68307 22.54442
vt -19.68307 26.83722
vt -15.74606 22.54442
vt -15.74606 26.83722
vt 19.68307 12.35555
vt 19.68307 7.730771
vt -19.68307 12.35555
vt -19.68307 7.730771
vt -19.68307 26.44309
vt -19.68307 30.55471
vt -15.74606 26.44309
vt -15.74606 30.55471
vt 19.68307 -6.295187
vt 19.68307 -10.0972
vt -19.68307 -6.295187
vt 19.68307 -10.8456
vt -19.68307 -10.0972
vt -19.68307 -10.8456
vt 19.68307 -15.40433
vt -19.68307 -15.40433
vt 19.68307 -10.96485
vt -19.68307 -10.96485
vt 19.68307 -28.64231
vt 19.68307 -32.2967
vt -19.68307 -28.64231
vt -19.68307 -32.2967
vt -19.68307 -18.27986
vt -19.68307 -16.36115
vt -15.74606 -18.27986
vt -19.68307 -13.98706
vt -15.74606 -13.98706
vt -15.74606 -16.36115
vt -19.68307 -4.540556
vt -15.74606 -4.540556
vt -19.68307 -9.09097
vt -15.74606 -9.09097
vt -19.68307 37.39855
vt -19.68307 40.49701
vt -15.74606 37.39855
vt -15.74606 40.49701
vt 19.68307 25.25529
vt 19.68307 23.33657
vt -19.68307 25.25529
vt 19.68307 20.96249
vt -19.68307 20.96249
vt -19.68307 23.33657
vt -19.68307 30.0069
vt -19.68307 33.90477
vt -15.74606 30.0069
vt -15.74606 33.90477
vt -19.68307 0.2667622
vt -19.68307 4.928835
vt -15.74606 0.2667622
vt -19.68307 9.590909
vt -15.74606 9.590909
vt -15.74606 4.928835
vt 19.68307 40.23106
vt 19.68307 37.13261
vt 15.74606 40.23106
vt -19.68307 37.13261
vt -19.68307 40.23106
vt -19.68307 -13.72106
vt -19.68307 -9.28158
vt -15.74606 -13.72106
vt -15.74606 -9.28158
vt 19.68307 28.7458
vt -19.68307 28.7458
vt 19.68307 32.64367
vt -19.68307 32.64367
vt -19.68307 18.38712
vt -19.68307 22.8266
vt -15.74606 18.38712
vt -15.74606 22.8266
vt 19.68307 12.27748
vt -19.68307 12.27748
vt 19.68307 16.8279
vt -19.68307 16.8279
vt 19.68307 -39.32436
vt 15.74606 -39.32436
vt 19.68307 -36.22591
vt -19.68307 -36.22591
vt -19.68307 -39.32436
vt 39.36614 5.773701
vt 39.36614 -1.973383E-14
vt 36.27098 5.916417
vt 36.27098 0.1427165
vt 32.9101 6.324882
vt 32.9101 0.5511811
vt 29.31301 6.969567
vt 29.31301 1.195866
vt 25.50926 7.820945
vt 25.50926 2.047244
vt 21.52836 8.849488
vt 21.52836 3.075787
vt 19.68307 9.375195
vt 19.68307 3.601494
vt 17.39984 10.02567
vt 17.39984 4.251968
vt 13.15321 11.31996
vt 13.15321 5.54626
vt 8.818016 12.70284
vt 12.4402 5.773701
vt 8.818016 6.929134
vt 4.42377 14.14476
vt 4.42377 8.371063
vt -2.210711E-14 15.61622
vt -2.210711E-14 9.84252
vt -4.42377 17.08768
vt -4.42377 11.31398
vt -8.818016 18.52961
vt -8.818016 12.75591
vt -12.4402 19.68504
vt -13.15321 14.13878
vt -13.15321 19.91248
vt -17.39984 21.20677
vt -17.39984 15.43307
vt -21.52836 22.38295
vt -19.68307 16.08355
vt -21.52836 16.60925
vt -25.50926 23.4115
vt -25.50926 17.63779
vt -29.31301 24.26287
vt -29.31301 18.48917
vt -32.9101 24.90756
vt -32.9101 19.13386
vt -36.27098 25.31602
vt -36.27098 19.54232
vt -39.36614 25.45874
vt -39.36614 19.68504

usemtl green

f 3/3/1 2/2/1 1/1/1
f 2/2/1 3/3/1 4/4/1
f 7/7/2 6/6/2 5/5/2
f 6/6/2 7/7/2 8/8/2
f 11/11/3 10/10/4 9/9/3
f 10/10/4 11/11/3 12/12/4
f 15/15/5 14/14/6 13/13/5
f 14/14/6 15/15/5 16/16/6
f 12/19/4 17/18/7 10/17/4
f 17/18/7 12/19/4 18/20/4
f 18/20/4 12/19/4 19/21/4
f 19/21/4 12/19/4 20/22/7
f 23/25/9 22/24/8 21/23/8
f 22/24/8 23/25/9 24/26/9
f 26/29/10 13/28/5 25/27/10
f 13/28/5 26/29/10 15/30/5
f 29/33/11 28/32/6 27/31/11
f 28/32/6 29/33/11 30/34/6
f 32/37/9 3/36/12 31/35/9
f 3/36/12 32/37/9 4/38/12
f 33/41/13 11/40/3 9/39/3
f 11/40/3 33/41/13 34/42/13
f 36/45/8 31/44/9 35/43/8
f 31/44/9 36/45/8 32/46/9
f 22/49/8 27/48/11 21/47/8
f 27/48/11 22/49/8 29/50/11
f 38/53/13 25/52/10 37/51/13
f 25/52/10 38/53/13 26/54/10
f 40/57/10 33/56/13 39/55/10
f 33/56/13 40/57/10 34/58/13
f 19/61/4 41/60/3 18/59/4
f 41/60/3 19/61/4 42/62/3
f 42/65/3 43/64/14 41/63/3
f 43/64/14 42/65/3 37/66/13
f 37/66/13 42/65/3 38/67/13
f 38/67/13 42/65/3 44/68/14
f 46/71/11 35/70/8 45/69/11
f 35/70/8 46/71/11 36/72/8
f 8/75/12 23/74/9 6/73/12
f 23/74/9 8/75/12 24/76/9
f 16/79/6 45/78/11 14/77/6
f 45/78/11 16/79/6 46/80/11
f 30/83/6 47/82/5 28/81/6
f 47/82/5 30/83/6 48/84/5
f 48/87/5 49/86/15 47/85/5
f 49/86/15 48/87/5 39/88/10
f 39/88/10 48/87/5 40/89/10
f 40/89/10 48/87/5 50/90/15
f 51/93/16 8/92/16 7/91/16
f 8/92/16 51/93/16 24/94/16
f 24/94/16 51/93/16 52/95/16
f 24/94/16 52/95/16 22/96/16
f 22/96/16 52/95/16 53/97/16
f 22/96/16 53/97/16 29/98/16
f 29/98/16 53/97/16 54/99/16
f 29/98/16 54/99/16 30/100/16
f 30/100/16 54/99/16 55/101/16
f 30/100/16 55/101/16 48/102/16
f 48/102/16 55/101/16 56/103/16
f 48/102/16 56/103/16 50/104/16
f 50/104/16 56/103/16 57/105/16
f 50/104/16 57/105/16 40/106/16
f 40/106/16 57/105/16 58/107/16
f 40/106/16 58/107/16 34/108/16
f 34/108/16 58/107/16 59/109/16
f 34/108/16 59/109/16 11/110/16
f 11/110/16 59/109/16 60/111/16
f 11/110/16 60/111/16 61/112/16
f 11/110/16 61/112/16 12/113/16
f 12/113/16 61/112/16 62/114/16
f 12/113/16 62/114/16 20/115/16
f 20/115/16 62/114/16 63/116/16
f 20/115/16 63/116/16 19/117/16
f 19/117/16 63/116/16 64/118/16
f 19/117/16 64/118/16 42/119/16
f 42/119/16 64/118/16 65/120/16
f 42/119/16 65/120/16 44/121/16
f 44/121/16 65/120/16 38/122/16
f 38/122/16 65/120/16 66/123/16
f 38/122/16 66/123/16 26/124/16
f 26/124/16 66/123/16 67/125/16
f 26/124/16 67/125/16 15/126/16
f 15/126/16 67/125/16 68/127/16
f 15/126/16 68/127/16 69/128/16
f 15/126/16 69/128/16 16/129/16
f 16/129/16 69/128/16 70/130/16
f 16/129/16 70/130/16 46/131/16
f 46/131/16 70/130/16 71/132/16
f 46/131/16 71/132/16 36/133/16
f 36/133/16 71/132/16 72/134/16
f 36/133/16 72/134/16 32/135/16
f 32/135/16 72/134/16 2/136/16
f 32/135/16 2/136/16 4/137/16

usemtl border

f 5/5/2 74/139/2 73/138/2
f 74/139/2 5/5/2 6/6/2
f 74/139/2 6/6/2 75/140/2
f 23/94/16 75/141/16 6/92/16
f 75/141/16 23/94/16 76/142/16
f 76/142/16 23/94/16 21/96/16
f 76/142/16 21/96/16 77/143/16
f 77/143/16 21/96/16 27/98/16
f 77/143/16 27/98/16 78/144/16
f 78/144/16 27/98/16 28/100/16
f 78/144/16 28/100/16 79/145/16
f 79/145/16 28/100/16 47/102/16
f 79/145/16 47/102/16 80/146/16
f 80/146/16 47/102/16 49/104/16
f 80/146/16 49/104/16 81/147/16
f 81/147/16 49/104/16 39/106/16
f 81/147/16 39/106/16 82/148/16
f 82/148/16 39/106/16 33/108/16
f 82/148/16 33/108/16 83/149/16
f 83/149/16 33/108/16 9/110/16
f 83/149/16 9/110/16 84/150/16
f 84/150/16 9/110/16 10/113/16
f 84/150/16 10/113/16 85/151/16
f 85/151/16 10/113/16 17/152/16
f 85/151/16 17/152/16 86/153/16
f 86/153/16 17/152/16 18/117/16
f 86/153/16 18/117/16 87/154/16
f 87/154/16 18/117/16 41/119/16
f 87/154/16 41/119/16 88/155/16
f 88/155/16 41/119/16 43/121/16
f 88/155/16 43/121/16 89/156/16
f 89/156/16 43/121/16 37/122/16
f 89/156/16 37/122/16 90/157/16
f 90/157/16 37/122/16 25/124/16
f 90/157/16 25/124/16 91/158/16
f 91/158/16 25/124/16 13/126/16
f 91/158/16 13/126/16 92/159/16
f 92/159/16 13/126/16 14/129/16
f 92/159/16 14/129/16 93/160/16
f 93/160/16 14/129/16 45/131/16
f 93/160/16 45/131/16 94/161/16
f 94/161/16 45/131/16 35/133/16
f 94/161/16 35/133/16 95/162/16
f 95/162/16 35/133/16 31/135/16
f 95/162/16 31/135/16 96/163/16
f 96/163/16 31/135/16 3/137/16
f 96/163/16 3/137/16 97/164/16
f 75/167/12 98/166/9 74/165/12
f 98/166/9 75/167/12 76/168/9
f 57/171/17 100/170/18 99/169/17
f 100/170/18 57/171/17 101/172/19
f 101/172/19 57/171/17 55/173/19
f 55/173/19 57/171/17 56/174/18
f 87/177/4 103/176/3 102/175/4
f 103/176/3 87/177/4 88/178/3
f 101/181/19 54/180/20 104/179/20
f 54/180/20 101/181/19 55/182/19
f 54/185/20 105/184/21 104/183/20
f 105/184/21 54/185/20 53/186/21
f 98/189/9 77/188/8 106/187/8
f 77/188/8 98/189/9 76/190/9
f 95/193/8 108/192/9 107/191/8
f 108/192/9 95/193/8 96/194/9
f 72/197/22 110/196/23 109/195/22
f 110/196/23 72/197/22 71/198/23
f 52/201/23 112/200/22 111/199/23
f 112/200/22 52/201/23 51/202/22
f 84/205/3 114/204/4 113/203/3
f 114/204/4 84/205/3 85/206/4
f 94/209/11 107/208/8 115/207/11
f 107/208/8 94/209/11 95/210/8
f 117/212/1 1/1/1 116/211/1
f 1/1/1 117/212/1 3/3/1
f 3/3/1 117/212/1 97/213/1
f 71/216/23 118/215/21 110/214/23
f 118/215/21 71/216/23 70/217/21
f 63/220/24 120/219/25 119/218/24
f 120/219/25 63/220/24 61/221/24
f 61/221/24 63/220/24 62/222/25
f 61/221/24 121/223/24 120/219/25
f 77/226/8 122/225/11 106/224/8
f 122/225/11 77/226/8 78/227/11
f 61/230/24 123/229/26 121/228/24
f 123/229/26 61/230/24 60/231/26
f 88/234/3 124/233/14 103/232/3
f 124/233/14 88/234/3 125/235/13
f 125/235/13 88/234/3 90/236/13
f 90/236/13 88/234/3 89/237/14
f 69/240/20 127/239/19 126/238/20
f 127/239/19 69/240/20 68/241/19
f 66/244/17 129/243/27 128/242/17
f 129/243/27 66/244/17 65/245/27
f 78/248/11 130/247/6 122/246/11
f 130/247/6 78/248/11 79/249/6
f 79/252/6 131/251/5 130/250/6
f 131/251/5 79/252/6 80/253/5
f 91/256/10 133/255/5 132/254/10
f 133/255/5 91/256/10 92/257/5
f 64/260/26 119/259/24 134/258/26
f 119/259/24 64/260/26 63/261/24
f 92/264/5 135/263/6 133/262/5
f 135/263/6 92/264/5 93/265/6
f 60/268/26 136/267/28 123/266/26
f 136/267/28 60/268/26 137/269/27
f 137/269/27 60/268/26 59/270/28
f 137/269/27 59/270/28 58/271/27
f 137/274/27 57/273/17 99/272/17
f 57/273/17 137/274/27 58/275/27
f 53/278/21 111/277/23 105/276/21
f 111/277/23 53/278/21 52/279/23
f 80/282/5 138/281/15 131/280/5
f 138/281/15 80/282/5 139/283/10
f 139/283/10 80/282/5 82/284/10
f 82/284/10 80/282/5 81/285/15
f 140/288/13 84/287/3 113/286/3
f 84/287/3 140/288/13 83/289/13
f 96/292/9 117/291/12 108/290/9
f 117/291/12 96/292/9 97/293/12
f 68/296/19 141/295/18 127/294/19
f 141/295/18 68/296/19 128/297/17
f 128/297/17 68/296/19 66/298/17
f 66/298/17 68/296/19 67/299/18
f 93/302/6 115/301/11 135/300/6
f 115/301/11 93/302/6 94/303/11
f 85/306/4 142/305/7 114/304/4
f 142/305/7 85/306/4 102/307/4
f 102/307/4 85/306/4 87/308/4
f 87/308/4 85/306/4 86/309/7
f 1/312/29 109/311/22 116/310/29
f 109/311/22 1/312/29 72/313/22
f 72/313/22 1/312/29 2/314/29
f 82/317/10 140/316/13 139/315/10
f 140/316/13 82/317/10 83/318/13
f 118/321/21 69/320/20 126/319/20
f 69/320/20 118/321/21 70/322/21
f 90/325/13 132/324/10 125/323/13
f 132/324/10 90/325/13 91/326/10
f 129/329/27 64/328/26 134/327/26
f 64/328/26 129/329/27 65/330/27
f 112/333/22 5/332/29 73/331/29
f 5/332/29 112/333/22 51/334/22
f 5/332/29 51/334/22 7/335/29
f 98/338/30 73/337/30 74/336/30
f 73/337/30 98/338/30 112/339/30
f 112/339/30 98/338/30 106/340/30
f 112/339/30 106/340/30 111/341/30
f 111/341/30 106/340/30 122/342/30
f 111/341/30 122/342/30 105/343/30
f 105/343/30 122/342/30 130/344/30
f 105/343/30 130/344/30 104/345/30
f 104/345/30 130/344/30 131/346/30
f 104/345/30 131/346/30 101/347/30
f 101/347/30 131/346/30 138/348/30
f 101/347/30 138/348/30 100/349/30
f 100/349/30 138/348/30 139/350/30
f 100/349/30 139/350/30 99/351/30
f 99/351/30 139/350/30 140/352/30
f 99/351/30 140/352/30 137/353/30
f 137/353/30 140/352/30 113/354/30
f 137/353/30 113/354/30 136/355/30
f 136/355/30 113/354/30 123/356/30
f 123/356/30 113/354/30 114/357/30
f 123/356/30 114/357/30 121/358/30
f 121/358/30 114/357/30 142/359/30
f 121/358/30 142/359/30 120/360/30
f 120/360/30 142/359/30 102/361/30
f 120/360/30 102/361/30 119/362/30
f 119/362/30 102/361/30 103/363/30
f 119/362/30 103/363/30 134/364/30
f 134/364/30 103/363/30 124/365/30
f 134/364/30 124/365/30 129/366/30
f 129/366/30 124/365/30 125/367/30
f 129/366/30 125/367/30 132/368/30
f 129/366/30 132/368/30 128/369/30
f 128/369/30 132/368/30 133/370/30
f 128/369/30 133/370/30 141/371/30
f 141/371/30 133/370/30 127/372/30
f 127/372/30 133/370/30 135/373/30
f 127/372/30 135/373/30 126/374/30
f 126/374/30 135/373/30 115/375/30
f 126/374/30 115/375/30 118/376/30
f 118/376/30 115/375/30 107/377/30
f 118/376/30 107/377/30 110/378/30
f 110/378/30 107/377/30 108/379/30
f 110/378/30 108/379/30 109/380/30
f 109/380/30 108/379/30 117/381/30
f 109/380/30 117/381/30 116/382/30

