# Created by Kenney (www.kenney.nl)

mtllib rampSide.mtl

g rampSide

v 0.39996 0.5 0.49995
v -0.49995 0.5 0.49995
v 0.39996 0.563327 0.49995
v -0.49995 0.563327 0.49995
v 0.39996 0.275952 -0.05618188
v 0.39996 0.313327 1.758937E-12
v -0.49995 0.275952 -0.05618188
v 0.39996 0.350702 0.05618188
v -0.49995 0.350702 0.05618188
v -0.49995 0.313327 -1.761103E-12
v 0.39996 0.549327 0.4179582
v 0.39996 0.559702 0.4606414
v -0.49995 0.549327 0.4179582
v -0.49995 0.559702 0.4606414
v 0.39996 0.387327 0.1119888
v -0.49995 0.387327 0.1119888
v 0.39996 0.077327 -0.4179582
v -0.49995 0.077327 -0.4179582
v 0.39996 0.066952 -0.4606414
v -0.49995 0.066952 -0.4606414
v 0.39996 0.416675 0.1579906
v 0.39996 0.422452 0.1670458
v -0.49995 0.422452 0.1670458
v -0.49995 0.416675 0.1579906
v 0.39996 0.239327 -0.1119888
v -0.49995 0.239327 -0.1119888
v 0.39996 0.204202 -0.1670458
v -0.49995 0.204202 -0.1670458
v 0.39996 0.511327 0.3239676
v 0.39996 0.532952 0.3722753
v -0.49995 0.511327 0.3239676
v -0.49995 0.532952 0.3722753
v 0.39996 0.115327 -0.3239676
v 0.39996 0.141452 -0.2734101
v -0.49995 0.115327 -0.3239676
v -0.49995 0.141452 -0.2734101
v 0.39996 0.171327 -0.2209779
v -0.49995 0.171327 -0.2209779
v 0.39996 0.093702 -0.3722753
v -0.49995 0.093702 -0.3722753
v 0.39996 0.063327 -0.49995
v -0.49995 0.063327 -0.49995
v 0.39996 0.485202 0.2734101
v -0.49995 0.485202 0.2734101
v 0.39996 0.1548049 -0.249975
v -0.49995 0.1548049 -0.249975
v 0.39996 0.455327 0.2209779
v -0.49995 0.455327 0.2209779
v 0.39996 2.005309E-17 -0.49995
v -0.49995 6.393207E-17 -0.49995
v -0.49995 0.003625 -0.4606414
v -0.49995 0.014 -0.4179582
v -0.49995 0.030375 -0.3722753
v -0.49995 0.052 -0.3239676
v -0.49995 0.078125 -0.2734101
v -0.49995 0.09147795 -0.249975
v -0.49995 0.108 -0.2209779
v -0.49995 0.140875 -0.1670458
v -0.49995 0.146652 -0.1579906
v -0.49995 0.176 -0.1119888
v -0.49995 0.212625 -0.05618188
v -0.49995 0.25 1.753884E-12
v -0.49995 0.287375 0.05618188
v -0.49995 0.324 0.1119888
v -0.49995 0.359125 0.1670458
v -0.49995 0.392 0.2209779
v -0.49995 0.4085221 0.249975
v -0.49995 0.421875 0.2734101
v -0.49995 0.448 0.3239676
v -0.49995 0.469625 0.3722753
v -0.49995 0.486 0.4179582
v -0.49995 0.496375 0.4606414
v 0.49995 0 -0.49995
v 0.49995 0.146652 -0.49995
v 0.39996 0.146652 -0.49995
v 0.49995 0.5 0.49995
v 0.49995 0.646652 0.49995
v 0.39996 0.646652 0.49995
v 0.49995 0.496375 0.4606414
v 0.49995 0.486 0.4179582
v 0.49995 0.469625 0.3722753
v 0.49995 0.448 0.3239676
v 0.49995 0.150277 -0.4606414
v 0.49995 0.003625 -0.4606414
v 0.49995 0.160652 -0.4179582
v 0.49995 0.014 -0.4179582
v 0.49995 0.177027 -0.3722753
v 0.49995 0.030375 -0.3722753
v 0.49995 0.198652 -0.3239676
v 0.49995 0.052 -0.3239676
v 0.49995 0.224777 -0.2734101
v 0.49995 0.078125 -0.2734101
v 0.49995 0.2381299 -0.249975
v 0.49995 0.09147795 -0.249975
v 0.49995 0.254652 -0.2209779
v 0.49995 0.108 -0.2209779
v 0.49995 0.287527 -0.1670458
v 0.49995 0.140875 -0.1670458
v 0.49995 0.322652 -0.1119888
v 0.49995 0.146652 -0.1579906
v 0.49995 0.176 -0.1119888
v 0.49995 0.359277 -0.05618188
v 0.49995 0.212625 -0.05618188
v 0.49995 0.396652 1.760381E-12
v 0.49995 0.25 1.760381E-12
v 0.49995 0.434027 0.05618188
v 0.49995 0.287375 0.05618188
v 0.49995 0.470652 0.1119888
v 0.49995 0.324 0.1119888
v 0.49995 0.5 0.1579906
v 0.49995 0.359125 0.1670458
v 0.49995 0.5057769 0.1670458
v 0.49995 0.538652 0.2209779
v 0.49995 0.392 0.2209779
v 0.49995 0.568527 0.2734101
v 0.49995 0.4085221 0.249975
v 0.49995 0.421875 0.2734101
v 0.49995 0.594652 0.3239676
v 0.49995 0.616277 0.3722753
v 0.49995 0.632652 0.4179582
v 0.49995 0.6430269 0.4606414
v 0.39996 0.150277 -0.4606414
v 0.39996 0.160652 -0.4179582
v 0.39996 0.177027 -0.3722753
v 0.39996 0.198652 -0.3239676
v 0.39996 0.224777 -0.2734101
v 0.39996 0.2381299 -0.249975
v 0.39996 0.254652 -0.2209779
v 0.39996 0.287527 -0.1670458
v 0.39996 0.322652 -0.1119888
v 0.39996 0.359277 -0.05618188
v 0.39996 0.396652 1.758937E-12
v 0.39996 0.434027 0.05618188
v 0.39996 0.470652 0.1119888
v 0.39996 0.5 0.1579906
v 0.39996 0.5057769 0.1670458
v 0.39996 0.538652 0.2209779
v 0.39996 0.568527 0.2734101
v 0.39996 0.594652 0.3239676
v 0.39996 0.616277 0.3722753
v 0.39996 0.632652 0.4179582
v 0.39996 0.6430269 0.4606414

vn 0 0 1
vn 0 0.8343193 -0.5512815
vn 0 0.8325943 -0.5538834
vn 0 0.9578674 -0.2872108
vn 0 0.9863852 -0.1644518
vn 0 0.8395583 -0.5432696
vn 0 0.8430455 -0.5378422
vn 0 0.8485019 -0.5291923
vn 0 0.9009146 -0.4339964
vn 0 0.9277194 -0.3732786
vn 0 0.8788133 -0.4771658
vn 0 0.8614579 -0.5078292
vn 0 0.9957748 -0.09182943
vn 0 0.8688585 -0.4950606
vn 0 0 -1
vn -1 0 0
vn 0 -0.9957748 0.09182943
vn 0 -0.9863852 0.1644518
vn 0 -0.9578674 0.2872108
vn 0 -0.9277194 0.3732786
vn 0 -0.9009146 0.4339964
vn 1 0 0
vn 0 -0.8788133 0.4771658
vn 0 -0.8614579 0.5078292
vn 0 -0.8485019 0.5291923
vn 0 -0.8688585 0.4950606
vn 0 -0.8343193 0.5512815
vn 0 -0.8395583 0.5432696
vn 0 -0.8430455 0.5378422
vn 0 -0.8325943 0.5538834

vt 15.74646 19.68504
vt -19.68307 19.68504
vt 15.74646 22.17823
vt -19.68307 22.17823
vt -15.74646 4.175926
vt -15.74646 6.832544
vt 19.68307 4.175926
vt -15.74646 9.489162
vt 19.68307 9.489162
vt 19.68307 6.832544
vt -15.74646 21.09762
vt -15.74646 22.82699
vt 19.68307 21.09762
vt 19.68307 22.82699
vt -15.74646 9.424853
vt -15.74646 12.05288
vt 19.68307 9.424853
vt 19.68307 12.05288
vt -15.74646 -15.27042
vt 19.68307 -15.27042
vt -15.74646 -16.99979
vt 19.68307 -16.99979
vt -15.74646 11.9186
vt -15.74646 14.06688
vt 19.68307 11.9186
vt -15.74646 14.48975
vt 19.68307 14.48975
vt 19.68307 14.06688
vt -15.74646 1.350728
vt 19.68307 1.350728
vt -15.74646 -1.220424
vt 19.68307 -1.220424
vt -15.74646 19.86658
vt -15.74646 21.95032
vt 19.68307 19.86658
vt 19.68307 21.95032
vt -15.74646 -9.24683
vt -15.74646 -7.00634
vt 19.68307 -9.24683
vt 19.68307 -7.00634
vt -15.74646 -3.917828
vt -15.74646 -1.431135
vt 19.68307 -3.917828
vt 19.68307 -1.431135
vt -15.74646 -11.87004
vt -15.74646 -9.786294
vt 19.68307 -11.87004
vt 19.68307 -9.786294
vt -15.74646 -19.37096
vt -15.74646 -17.81681
vt 19.68307 -19.37096
vt 19.68307 -17.81681
vt -15.74646 20.87694
vt -15.74646 22.78753
vt 19.68307 20.87694
vt 19.68307 22.78753
vt -15.74646 18.33227
vt -15.74646 20.57276
vt 19.68307 18.33227
vt 19.68307 20.57276
vt -15.74646 20.08237
vt -15.74646 21.63652
vt 19.68307 20.08237
vt 19.68307 21.63652
vt -15.74646 1.483697
vt -15.74646 4.111721
vt 19.68307 1.483697
vt 19.68307 4.111721
vt -15.74646 -6.595567
vt -15.74646 -5.533663
vt 19.68307 -6.595567
vt -15.74646 -4.219735
vt 19.68307 -4.219735
vt 19.68307 -5.533663
vt -15.74646 16.43358
vt -15.74646 18.80941
vt 19.68307 16.43358
vt 19.68307 18.80941
vt -15.74646 -14.46274
vt -15.74646 -12.55214
vt 19.68307 -14.46274
vt 19.68307 -12.55214
vt -15.74646 14.27229
vt -15.74646 16.75898
vt 19.68307 14.27229
vt 19.68307 16.75898
vt -15.74646 4.689062E-14
vt -15.74646 2.493189
vt 19.68307 7.28421E-10
vt 19.68307 2.493189
vt -19.68307 2.493189
vt -18.13549 2.635906
vt -19.68307 -9.964339E-14
vt -18.13549 0.1427165
vt -16.45505 3.04437
vt -16.45505 0.5511811
vt -14.65651 3.689055
vt -14.65651 1.195866
vt -12.75463 4.540433
vt -12.75463 2.047244
vt -10.76418 5.568976
vt -10.76418 3.075787
vt -9.841536 6.094683
vt -9.841536 3.601494
vt -8.699918 6.745158
vt -8.699918 4.251968
vt -6.576606 8.039449
vt -6.576606 5.54626
vt -4.409008 9.422323
vt -6.220102 5.773701
vt -4.409008 6.929134
vt -2.211885 10.86425
vt -2.211885 8.371063
vt -6.903374E-11 12.33571
vt 6.935157E-11 9.84252
vt 2.211885 13.80717
vt 2.211885 11.31398
vt 4.409008 15.24909
vt 4.409008 12.75591
vt 6.220102 16.40453
vt 6.576606 14.13878
vt 6.576606 16.63197
vt 8.699918 17.92626
vt 8.699918 15.43307
vt 10.76418 19.10244
vt 9.841536 16.08355
vt 10.76418 16.60925
vt 12.75463 20.13098
vt 12.75463 17.63779
vt 14.65651 20.98236
vt 14.65651 18.48917
vt 16.45505 21.62705
vt 16.45505 19.13386
vt 18.13549 22.03551
vt 18.13549 19.54232
vt 19.68307 22.17823
vt 19.68307 19.68504
vt -19.68307 4.610112E-14
vt -19.68307 5.773701
vt -15.74646 5.773701
vt 19.68307 25.45874
vt 15.74646 25.45874
vt 19.68307 21.40757
vt 19.68307 19.85342
vt 15.74646 21.40757
vt -19.68307 19.85342
vt -19.68307 21.40757
vt 19.68307 22.23812
vt 19.68307 20.50875
vt -19.68307 22.23812
vt -19.68307 20.50875
vt 19.68307 21.94626
vt 19.68307 20.03567
vt -19.68307 21.94626
vt -19.68307 20.03567
vt 19.68307 18.8479
vt -19.68307 18.8479
vt 19.68307 20.93165
vt -19.68307 20.93165
vt 19.68307 5.773701
vt 19.68307 -2.294209E-14
vt 18.13549 5.916417
vt 18.13549 0.1427165
vt 16.45505 6.324882
vt 16.45505 0.5511811
vt 14.65651 6.969567
vt 14.65651 1.195866
vt 12.75463 7.820945
vt 12.75463 2.047244
vt 10.76418 8.849488
vt 10.76418 3.075787
vt 9.841536 9.375195
vt 9.841536 3.601494
vt 8.699918 10.02567
vt 8.699918 4.251968
vt 6.576606 11.31996
vt 6.576606 5.54626
vt 4.409008 12.70284
vt 6.220102 5.773701
vt 4.409008 6.929134
vt 2.211885 14.14476
vt 2.211885 8.371063
vt -6.90789E-11 15.61622
vt -6.90789E-11 9.84252
vt -2.211885 17.08768
vt -2.211885 11.31398
vt -4.409008 18.52961
vt -4.409008 12.75591
vt -6.220102 19.68504
vt -6.576606 14.13878
vt -6.576606 19.91248
vt -8.699918 21.20677
vt -8.699918 15.43307
vt -10.76418 22.38295
vt -9.841536 16.08355
vt -10.76418 16.60925
vt -12.75463 23.4115
vt -12.75463 17.63779
vt -14.65651 24.26287
vt -14.65651 18.48917
vt -16.45505 24.90756
vt -16.45505 19.13386
vt -18.13549 25.31602
vt -18.13549 19.54232
vt -19.68307 25.45874
vt -18.13549 5.916417
vt -16.45505 6.324882
vt -14.65651 6.969567
vt -12.75463 7.820945
vt -10.76418 8.849488
vt -9.841536 9.375195
vt -8.699918 6.745157
vt -8.699918 10.02567
vt -6.576606 11.31996
vt -4.409008 12.70284
vt -2.211885 14.14476
vt 1.264803E-10 12.33571
vt 1.264803E-10 15.61622
vt 2.211885 17.08768
vt 4.409008 18.52961
vt 6.220102 19.68504
vt 6.576606 19.91248
vt 8.699918 21.20677
vt 10.76418 22.38295
vt 12.75463 23.4115
vt 14.65651 24.26287
vt 16.45505 24.90756
vt 18.13549 25.31602
vt 19.68307 19.42821
vt 19.68307 17.18772
vt -19.68307 19.42821
vt -19.68307 17.18772
vt 19.68307 15.46131
vt 19.68307 12.97462
vt -19.68307 15.46131
vt -19.68307 12.97462
vt 19.68307 17.57513
vt 19.68307 16.51323
vt -19.68307 17.57513
vt 19.68307 15.1993
vt -19.68307 15.1993
vt -19.68307 16.51323
vt -19.68307 21.87245
vt -19.68307 23.60182
vt -15.74646 21.87245
vt -15.74646 23.60182
vt 19.68307 -10.80497
vt 19.68307 -12.88871
vt -19.68307 -10.80497
vt -19.68307 -12.88871
vt -19.68307 -19.06971
vt -19.68307 -17.51556
vt -15.74646 -19.06971
vt -15.74646 -17.51556
vt -19.68307 -10.52968
vt -19.68307 -8.445938
vt -15.74646 -10.52968
vt -15.74646 -8.445938
vt 19.68307 2.743772
vt 19.68307 0.1157479
vt -19.68307 2.743772
vt -19.68307 0.1157479
vt -19.68307 13.683
vt -19.68307 15.83127
vt -15.74646 13.683
vt -19.68307 16.25415
vt -15.74646 16.25415
vt -15.74646 15.83127
vt 19.68307 -19.59991
vt 15.74646 -19.59991
vt 19.68307 -18.04576
vt -19.68307 -18.04576
vt -19.68307 -19.59991
vt -19.68307 3.115126
vt -15.74646 3.115126
vt -19.68307 0.5439741
vt -15.74646 0.5439741
vt -19.68307 18.05763
vt -19.68307 20.43347
vt -15.74646 18.05763
vt -15.74646 20.43347
vt 19.68307 10.57766
vt -19.68307 10.57766
vt 19.68307 13.14881
vt -19.68307 13.14881
vt 19.68307 -15.85929
vt 19.68307 -17.58866
vt -19.68307 -15.85929
vt -19.68307 -17.58866
vt 19.68307 10.68493
vt 19.68307 8.056905
vt -19.68307 10.68493
vt -19.68307 8.056905
vt -19.68307 -2.210364
vt -19.68307 0.276329
vt -15.74646 -2.210364
vt -15.74646 0.276329
vt -19.68307 19.83825
vt -19.68307 22.07874
vt -15.74646 19.83825
vt -15.74646 22.07874
vt -19.68307 20.38362
vt -19.68307 21.93777
vt -15.74646 20.38362
vt -15.74646 21.93777
vt 19.68307 -5.454014
vt 19.68307 -6.767943
vt -19.68307 -5.454014
vt 19.68307 -7.829847
vt -19.68307 -7.829847
vt -19.68307 -6.767943
vt -19.68307 11.22479
vt -19.68307 13.85281
vt -15.74646 11.22479
vt -15.74646 13.85281
vt 19.68307 0.009786168
vt 19.68307 -2.138489
vt -19.68307 0.009786168
vt 19.68307 -2.561366
vt -19.68307 -2.138489
vt -19.68307 -2.561366
vt -19.68307 -4.971515
vt -19.68307 -3.909611
vt -15.74646 -4.971515
vt -19.68307 -2.595682
vt -15.74646 -2.595682
vt -15.74646 -3.909611
vt -19.68307 21.98387
vt -19.68307 23.89446
vt -15.74646 21.98387
vt -15.74646 23.89446
vt 19.68307 8.108227
vt 19.68307 5.451608
vt -19.68307 8.108227
vt -19.68307 2.79499
vt -19.68307 5.451608
vt 19.68307 2.79499
vt -19.68307 15.97975
vt -19.68307 18.46644
vt -15.74646 15.97975
vt -15.74646 18.46644
vt 19.68307 -13.39341
vt 19.68307 -15.30401
vt -19.68307 -13.39341
vt -19.68307 -15.30401
vt -19.68307 3.283629
vt -19.68307 5.911653
vt -15.74646 3.283629
vt -15.74646 5.911653
vt -19.68307 21.20693
vt -19.68307 23.29067
vt -15.74646 21.20693
vt -15.74646 23.29067
vt -19.68307 -14.49558
vt -15.74646 -14.49558
vt -19.68307 -16.22496
vt -15.74646 -16.22496
vt 19.68307 -10.39138
vt -19.68307 -10.39138
vt 19.68307 -8.15089
vt -19.68307 -8.15089
vt -19.68307 -13.35581
vt -19.68307 -11.44521
vt -15.74646 -13.35581
vt -15.74646 -11.44521
vt 19.68307 -5.2155
vt -19.68307 -5.2155
vt 19.68307 -2.728807
vt -19.68307 -2.728807
vt -19.68307 -7.740843
vt -19.68307 -5.500353
vt -15.74646 -7.740843
vt -15.74646 -5.500353
vt -19.68307 5.992947
vt -19.68307 8.649565
vt -15.74646 5.992947
vt -19.68307 11.30618
vt -15.74646 11.30618
vt -15.74646 8.649565

usemtl green

f 3/3/1 2/2/1 1/1/1
f 2/2/1 3/3/1 4/4/1
f 7/7/2 6/6/3 5/5/2
f 6/6/3 7/7/2 8/8/2
f 8/8/2 7/7/2 9/9/2
f 9/9/2 7/7/2 10/10/3
f 13/13/4 12/12/5 11/11/4
f 12/12/5 13/13/4 14/14/5
f 9/17/2 15/16/6 8/15/2
f 15/16/6 9/17/2 16/18/6
f 19/21/5 18/20/4 17/19/4
f 18/20/4 19/21/5 20/22/5
f 16/25/6 21/24/7 15/23/6
f 21/24/7 16/25/6 22/26/8
f 22/26/8 16/25/6 23/27/8
f 23/27/8 16/25/6 24/28/7
f 27/31/8 26/30/6 25/29/6
f 26/30/6 27/31/8 28/32/8
f 31/35/9 30/34/10 29/33/9
f 30/34/10 31/35/9 32/36/10
f 35/39/9 34/38/11 33/37/9
f 34/38/11 35/39/9 36/40/11
f 38/43/12 27/42/8 37/41/12
f 27/42/8 38/43/12 28/44/8
f 40/47/10 33/46/9 39/45/10
f 33/46/9 40/47/10 35/48/9
f 42/51/13 19/50/5 41/49/13
f 19/50/5 42/51/13 20/52/5
f 32/55/10 11/54/4 30/53/10
f 11/54/4 32/55/10 13/56/4
f 44/59/11 29/58/9 43/57/11
f 29/58/9 44/59/11 31/60/9
f 14/63/5 3/62/13 12/61/5
f 3/62/13 14/63/5 4/64/13
f 26/67/6 5/66/2 25/65/6
f 5/66/2 26/67/6 7/68/2
f 36/71/11 45/70/14 34/69/11
f 45/70/14 36/71/11 37/72/12
f 37/72/12 36/71/11 38/73/12
f 38/73/12 36/71/11 46/74/14
f 48/77/12 43/76/11 47/75/12
f 43/76/11 48/77/12 44/78/11
f 18/81/4 39/80/10 17/79/4
f 39/80/10 18/81/4 40/82/10
f 23/85/8 47/84/12 22/83/8
f 47/84/12 23/85/8 48/86/12
f 50/89/15 41/88/15 49/87/15
f 41/88/15 50/89/15 42/90/15
f 50/93/16 20/92/16 42/91/16
f 20/92/16 50/93/16 51/94/16
f 20/92/16 51/94/16 18/95/16
f 18/95/16 51/94/16 52/96/16
f 18/95/16 52/96/16 40/97/16
f 40/97/16 52/96/16 53/98/16
f 40/97/16 53/98/16 35/99/16
f 35/99/16 53/98/16 54/100/16
f 35/99/16 54/100/16 36/101/16
f 36/101/16 54/100/16 55/102/16
f 36/101/16 55/102/16 46/103/16
f 46/103/16 55/102/16 56/104/16
f 46/103/16 56/104/16 38/105/16
f 38/105/16 56/104/16 57/106/16
f 38/105/16 57/106/16 28/107/16
f 28/107/16 57/106/16 58/108/16
f 28/107/16 58/108/16 26/109/16
f 26/109/16 58/108/16 59/110/16
f 26/109/16 59/110/16 60/111/16
f 26/109/16 60/111/16 7/112/16
f 7/112/16 60/111/16 61/113/16
f 7/112/16 61/113/16 10/114/16
f 10/114/16 61/113/16 62/115/16
f 10/114/16 62/115/16 9/116/16
f 9/116/16 62/115/16 63/117/16
f 9/116/16 63/117/16 16/118/16
f 16/118/16 63/117/16 64/119/16
f 16/118/16 64/119/16 24/120/16
f 24/120/16 64/119/16 65/121/16
f 24/120/16 65/121/16 23/122/16
f 23/122/16 65/121/16 48/123/16
f 48/123/16 65/121/16 66/124/16
f 48/123/16 66/124/16 44/125/16
f 44/125/16 66/124/16 67/126/16
f 44/125/16 67/126/16 68/127/16
f 44/125/16 68/127/16 31/128/16
f 31/128/16 68/127/16 69/129/16
f 31/128/16 69/129/16 32/130/16
f 32/130/16 69/129/16 70/131/16
f 32/130/16 70/131/16 13/132/16
f 13/132/16 70/131/16 71/133/16
f 13/132/16 71/133/16 14/134/16
f 14/134/16 71/133/16 72/135/16
f 14/134/16 72/135/16 4/136/16
f 4/136/16 72/135/16 2/137/16

usemtl border

f 49/87/15 74/139/15 73/138/15
f 74/139/15 49/87/15 41/88/15
f 74/139/15 41/88/15 75/140/15
f 77/141/1 1/1/1 76/137/1
f 1/1/1 77/141/1 3/3/1
f 3/3/1 77/141/1 78/142/1
f 1/145/17 79/144/18 76/143/17
f 79/144/18 1/145/17 72/146/18
f 72/146/18 1/145/17 2/147/17
f 72/150/18 80/149/19 79/148/18
f 80/149/19 72/150/18 71/151/19
f 71/154/19 81/153/20 80/152/19
f 81/153/20 71/154/19 70/155/20
f 81/158/20 69/157/21 82/156/21
f 69/157/21 81/158/20 70/159/20
f 83/162/22 73/161/22 74/160/22
f 73/161/22 83/162/22 84/163/22
f 84/163/22 83/162/22 85/164/22
f 84/163/22 85/164/22 86/165/22
f 86/165/22 85/164/22 87/166/22
f 86/165/22 87/166/22 88/167/22
f 88/167/22 87/166/22 89/168/22
f 88/167/22 89/168/22 90/169/22
f 90/169/22 89/168/22 91/170/22
f 90/169/22 91/170/22 92/171/22
f 92/171/22 91/170/22 93/172/22
f 92/171/22 93/172/22 94/173/22
f 94/173/22 93/172/22 95/174/22
f 94/173/22 95/174/22 96/175/22
f 96/175/22 95/174/22 97/176/22
f 96/175/22 97/176/22 98/177/22
f 98/177/22 97/176/22 99/178/22
f 98/177/22 99/178/22 100/179/22
f 100/179/22 99/178/22 101/180/22
f 101/180/22 99/178/22 102/181/22
f 101/180/22 102/181/22 103/182/22
f 103/182/22 102/181/22 104/183/22
f 103/182/22 104/183/22 105/184/22
f 105/184/22 104/183/22 106/185/22
f 105/184/22 106/185/22 107/186/22
f 107/186/22 106/185/22 108/187/22
f 107/186/22 108/187/22 109/188/22
f 109/188/22 108/187/22 110/189/22
f 109/188/22 110/189/22 111/190/22
f 111/190/22 110/189/22 112/191/22
f 111/190/22 112/191/22 113/192/22
f 111/190/22 113/192/22 114/193/22
f 114/193/22 113/192/22 115/194/22
f 114/193/22 115/194/22 116/195/22
f 116/195/22 115/194/22 117/196/22
f 117/196/22 115/194/22 118/197/22
f 117/196/22 118/197/22 82/198/22
f 82/198/22 118/197/22 119/199/22
f 82/198/22 119/199/22 81/200/22
f 81/200/22 119/199/22 120/201/22
f 81/200/22 120/201/22 80/202/22
f 80/202/22 120/201/22 121/203/22
f 80/202/22 121/203/22 79/204/22
f 79/204/22 121/203/22 77/205/22
f 79/204/22 77/205/22 76/2/22
f 19/92/16 75/139/16 41/91/16
f 75/139/16 19/92/16 122/206/16
f 122/206/16 19/92/16 17/95/16
f 122/206/16 17/95/16 123/207/16
f 123/207/16 17/95/16 39/97/16
f 123/207/16 39/97/16 124/208/16
f 124/208/16 39/97/16 33/99/16
f 124/208/16 33/99/16 125/209/16
f 125/209/16 33/99/16 34/101/16
f 125/209/16 34/101/16 126/210/16
f 126/210/16 34/101/16 45/103/16
f 126/210/16 45/103/16 127/211/16
f 127/211/16 45/103/16 37/212/16
f 127/211/16 37/212/16 128/213/16
f 128/213/16 37/212/16 27/107/16
f 128/213/16 27/107/16 129/214/16
f 129/214/16 27/107/16 25/109/16
f 129/214/16 25/109/16 130/215/16
f 130/215/16 25/109/16 5/112/16
f 130/215/16 5/112/16 131/216/16
f 131/216/16 5/112/16 6/217/16
f 131/216/16 6/217/16 132/218/16
f 132/218/16 6/217/16 8/116/16
f 132/218/16 8/116/16 133/219/16
f 133/219/16 8/116/16 15/118/16
f 133/219/16 15/118/16 134/220/16
f 134/220/16 15/118/16 21/120/16
f 134/220/16 21/120/16 135/221/16
f 135/221/16 21/120/16 22/122/16
f 135/221/16 22/122/16 136/222/16
f 136/222/16 22/122/16 47/123/16
f 136/222/16 47/123/16 137/223/16
f 137/223/16 47/123/16 43/125/16
f 137/223/16 43/125/16 138/224/16
f 138/224/16 43/125/16 29/128/16
f 138/224/16 29/128/16 139/225/16
f 139/225/16 29/128/16 30/130/16
f 139/225/16 30/130/16 140/226/16
f 140/226/16 30/130/16 11/132/16
f 140/226/16 11/132/16 141/227/16
f 141/227/16 11/132/16 12/134/16
f 141/227/16 12/134/16 142/228/16
f 142/228/16 12/134/16 3/136/16
f 142/228/16 3/136/16 78/141/16
f 69/231/21 117/230/23 82/229/21
f 117/230/23 69/231/21 68/232/23
f 66/235/24 111/234/25 114/233/24
f 111/234/25 66/235/24 65/236/25
f 68/239/23 116/238/26 117/237/23
f 116/238/26 68/239/23 114/240/24
f 114/240/24 68/239/23 66/241/24
f 66/241/24 68/239/23 67/242/26
f 141/245/4 121/244/5 120/243/4
f 121/244/5 141/245/4 142/246/5
f 54/249/21 88/248/20 90/247/21
f 88/248/20 54/249/21 53/250/20
f 75/253/13 83/252/5 74/251/13
f 83/252/5 75/253/13 122/254/5
f 124/257/10 89/256/9 87/255/10
f 89/256/9 124/257/10 125/258/9
f 61/261/27 101/260/28 103/259/27
f 101/260/28 61/261/27 60/262/28
f 134/265/6 110/264/7 108/263/6
f 110/264/7 134/265/6 112/266/8
f 112/266/8 134/265/6 136/267/8
f 136/267/8 134/265/6 135/268/7
f 84/271/18 49/270/17 73/269/17
f 49/270/17 84/271/18 51/272/18
f 49/270/17 51/272/18 50/273/17
f 97/276/8 130/275/6 99/274/6
f 130/275/6 97/276/8 129/277/8
f 137/280/12 115/279/11 113/278/12
f 115/279/11 137/280/12 138/281/11
f 111/284/25 64/283/28 109/282/28
f 64/283/28 111/284/25 65/285/25
f 52/288/19 84/287/18 86/286/19
f 84/287/18 52/288/19 51/289/18
f 64/292/28 107/291/27 109/290/28
f 107/291/27 64/292/28 63/293/27
f 128/296/12 97/295/8 95/294/12
f 97/295/8 128/296/12 129/297/8
f 138/300/11 118/299/9 115/298/11
f 118/299/9 138/300/11 139/301/9
f 142/304/5 77/303/13 121/302/5
f 77/303/13 142/304/5 78/305/13
f 57/308/24 94/307/26 96/306/24
f 94/307/26 57/308/24 92/309/23
f 92/309/23 57/308/24 55/310/23
f 55/310/23 57/308/24 56/311/26
f 133/314/2 108/313/6 106/312/2
f 108/313/6 133/314/2 134/315/6
f 60/318/28 100/317/29 101/316/28
f 100/317/29 60/318/28 98/319/25
f 98/319/25 60/318/28 59/320/29
f 98/319/25 59/320/29 58/321/25
f 126/324/11 93/323/14 91/322/11
f 93/323/14 126/324/11 95/325/12
f 95/325/12 126/324/11 128/326/12
f 128/326/12 126/324/11 127/327/14
f 140/330/10 120/329/4 119/328/10
f 120/329/4 140/330/10 141/331/4
f 63/334/27 105/333/30 107/332/27
f 105/333/30 63/334/27 61/335/27
f 61/335/27 63/334/27 62/336/30
f 61/335/27 103/337/27 105/333/30
f 136/340/8 113/339/12 112/338/8
f 113/339/12 136/340/8 137/341/12
f 53/344/20 86/343/19 88/342/20
f 86/343/19 53/344/20 52/345/19
f 130/348/6 102/347/2 99/346/6
f 102/347/2 130/348/6 131/349/2
f 139/352/9 119/351/10 118/350/9
f 119/351/10 139/352/9 140/353/10
f 83/356/5 123/355/4 85/354/4
f 123/355/4 83/356/5 122/357/5
f 92/360/23 54/359/21 90/358/21
f 54/359/21 92/360/23 55/361/23
f 123/364/4 87/363/10 85/362/4
f 87/363/10 123/364/4 124/365/10
f 98/368/25 57/367/24 96/366/24
f 57/367/24 98/368/25 58/369/25
f 125/372/9 91/371/11 89/370/9
f 91/371/11 125/372/9 126/373/11
f 131/376/2 104/375/3 102/374/2
f 104/375/3 131/376/2 106/377/2
f 106/377/2 131/376/2 133/378/2
f 133/378/2 131/376/2 132/379/3

