# Created by Kenney (www.kenney.nl)

mtllib skewLargeCorner.mtl

g skewLargeCorner

v -0.9999 1.631061E-16 0.09999
v -0.9999 0.063327 0.09999
v -0.9999 1.621481E-16 0.89991
v -0.9999 0.063327 0.89991
v 0.89991 6.69742E-17 -0.9999
v 0.89991 0.063327 -0.9999
v 0.09999 6.762949E-17 -0.9999
v 0.09999 0.063327 -0.9999
v 0.8964883 0.063327 -0.9476948
v 0.8862817 0.063327 -0.8963827
v 0.8694649 0.063327 -0.8468419
v 0.8463255 0.063327 -0.79992
v 0.8172596 0.063327 -0.7564198
v 0.7827644 0.063327 -0.7170856
v 0.09785143 0.063327 -0.9672717
v 0.09147231 0.063327 -0.9352017
v 0.08096179 0.063327 -0.9042387
v -0.7170856 0.063327 0.7827644
v 0.0664997 0.063327 -0.8749125
v 0.0483335 0.063327 -0.8477249
v 0.02677402 0.063327 -0.8231409
v -0.8231409 0.063327 0.02677402
v -0.7564198 0.063327 0.8172596
v -0.79992 0.063327 0.8463255
v -0.8468419 0.063327 0.8694649
v -0.8477249 0.063327 0.0483335
v -0.8963827 0.063327 0.8862817
v -0.8749125 0.063327 0.0664997
v -0.9042387 0.063327 0.08096179
v -0.9476948 0.063327 0.8964883
v -0.9352017 0.063327 0.09147231
v -0.9672717 0.063327 0.09785143
v 0.9999 0 -0.9999
v 0.9956228 2.517492E-18 -0.9346434
v 0.9828646 5.474413E-18 -0.8705034
v 0.9618436 8.82017E-18 -0.8085774
v 0.9329194 1.249751E-17 -0.749925
v 0.896587 1.644353E-17 -0.6955497
v 0.8534681 2.059069E-17 -0.646382
v -0.646382 1.415222E-16 0.8534681
v -0.01141693 6.764028E-17 -0.9425032
v -0.005110615 6.702056E-17 -0.961081
v -0.001283142 6.679726E-17 -0.980323
v 3.580681E-13 6.69742E-17 -0.9999
v -0.02009418 6.864582E-17 -0.9249075
v -0.0309939 7.001998E-17 -0.9085949
v -0.04392959 7.173923E-17 -0.8938445
v -0.8938445 1.528684E-16 -0.04392959
v -0.6955497 1.457812E-16 0.896587
v -0.749925 1.497975E-16 0.9329194
v -0.8085774 1.535025E-16 0.9618436
v -0.8705034 1.568326E-16 0.9828646
v -0.9346434 1.59731E-16 0.9956228
v -0.9085949 1.541154E-16 -0.0309939
v -0.9249075 1.555163E-16 -0.02009418
v -0.9425032 1.57047E-16 -0.01141693
v -0.9999 1.127987E-16 0.9999
v -0.961081 1.586814E-16 -0.005110615
v -0.980323 1.603915E-16 -0.001283142
v -0.9999 1.621481E-16 6.006303E-13
v 0.9999 0.146652 -0.9999
v 0.9956228 0.146652 -0.9346434
v 0.89991 0.146652 -0.9999
v 0.9828646 0.146652 -0.8705034
v 0.9618436 0.146652 -0.8085774
v 0.9329194 0.146652 -0.749925
v 0.896587 0.146652 -0.6955497
v 0.8964883 0.146652 -0.9476948
v 0.8534681 0.146652 -0.646382
v 0.8862817 0.146652 -0.8963827
v 0.8694649 0.146652 -0.8468419
v 0.8463255 0.146652 -0.79992
v 0.8172596 0.146652 -0.7564198
v 0.7827644 0.146652 -0.7170856
v -0.646382 0.146652 0.8534681
v -0.7170856 0.146652 0.7827644
v -0.6955497 0.146652 0.896587
v -0.749925 0.146652 0.9329194
v -0.7564198 0.146652 0.8172596
v -0.8085774 0.146652 0.9618436
v -0.79992 0.146652 0.8463255
v -0.8468419 0.146652 0.8694649
v -0.8705034 0.146652 0.9828646
v -0.8963827 0.146652 0.8862817
v -0.9346434 0.146652 0.9956228
v -0.9476948 0.146652 0.8964883
v -0.9999 0.146652 0.9999
v -0.9999 0.146652 0.89991
v 0.09999 0.146652 -0.9999
v 0.09785143 0.146652 -0.9672717
v 3.580681E-13 0.146652 -0.9999
v 0.09147231 0.146652 -0.9352017
v 0.08096179 0.146652 -0.9042387
v 0.0664997 0.146652 -0.8749125
v 0.0483335 0.146652 -0.8477249
v 0.02677402 0.146652 -0.8231409
v -0.001283142 0.146652 -0.980323
v -0.005110615 0.146652 -0.961081
v -0.01141693 0.146652 -0.9425032
v -0.02009418 0.146652 -0.9249075
v -0.0309939 0.146652 -0.9085949
v -0.8231409 0.146652 0.02677402
v -0.04392959 0.146652 -0.8938445
v -0.8938445 0.146652 -0.04392959
v -0.8477249 0.146652 0.0483335
v -0.8749125 0.146652 0.0664997
v -0.9042387 0.146652 0.08096179
v -0.9085949 0.146652 -0.0309939
v -0.9352017 0.146652 0.09147231
v -0.9249075 0.146652 -0.02009418
v -0.9425032 0.146652 -0.01141693
v -0.9672717 0.146652 0.09785143
v -0.961081 0.146652 -0.005110615
v -0.980323 0.146652 -0.001283142
v -0.9999 0.146652 0.09999
v -0.9999 0.146652 6.006303E-13

vn -1 0 0
vn 0 0 -1
vn 0 1 0
vn 0 -1 0
vn 0.7933533 0 0.6087614
vn 0.7518399 0 0.6593459
vn 0.9238795 0 0.3826834
vn 0.8660254 0 0.5
vn 0.9659258 0 0.258819
vn 0.9914449 0 0.1305262
vn 0.5 0 0.8660254
vn 0.3826834 0 0.9238795
vn -0.9978589 0 -0.06540313
vn -0.9914449 0 -0.1305262
vn -0.8660254 0 -0.5
vn -0.7933533 0 -0.6087614
vn -0.7518399 0 -0.6593459
vn -0.6593459 0 -0.7518399
vn -0.6087614 0 -0.7933533
vn -0.5 0 -0.8660254
vn -0.7071068 0 -0.7071068
vn -0.1305262 0 -0.9914449
vn -0.258819 0 -0.9659258
vn -0.06540313 0 -0.9978589
vn -0.9659258 0 -0.258819
vn -0.9238795 0 -0.3826834
vn 0.258819 0 0.9659258
vn 0.9978589 0 0.06540313
vn -0.3826834 0 -0.9238795
vn 0.06540313 0 0.9978589
vn 0.1305262 0 0.9914449
vn 0.6593459 0 0.7518399
vn 0.6087614 0 0.7933533
vn 0.7071068 0 0.7071068

vt 3.936614 6.421502E-15
vt 3.936614 2.493189
vt 35.42953 6.383782E-15
vt 35.42953 2.493189
vt -35.42953 2.63678E-15
vt -35.42953 2.493189
vt -3.936614 2.662578E-15
vt -3.936614 2.493189
vt -35.42953 -39.36614
vt -35.29482 -37.31082
vt -3.936614 -39.36614
vt -34.89298 -35.29066
vt -34.2309 -33.34023
vt -33.3199 -31.49291
vt -32.17558 -29.78031
vt -30.8175 -28.23172
vt -3.852418 -38.08156
vt -3.601272 -36.81897
vt -3.187472 -35.59995
vt 28.23172 30.8175
vt -2.618098 -34.44537
vt -1.902894 -33.375
vt -1.054095 -32.40712
vt 32.40712 1.054095
vt 29.78031 32.17558
vt 31.49291 33.3199
vt 33.34023 34.2309
vt 33.375 1.902894
vt 35.29066 34.89298
vt 34.44537 2.618098
vt 35.59995 3.187472
vt 37.31082 35.29482
vt 36.81897 3.601272
vt 38.08156 3.852418
vt 39.36614 35.42953
vt 39.36614 3.936614
vt 39.36614 -39.36614
vt 35.42953 -39.36614
vt 39.19775 -36.79699
vt 38.69546 -34.27179
vt 37.86786 -31.83376
vt 36.72911 -29.52461
vt 35.2987 -27.38385
vt 3.936614 -39.36614
vt 33.6011 -25.44811
vt -25.44811 33.6011
vt -0.4494854 -37.10643
vt -0.2012053 -37.83784
vt -0.05051742 -38.59539
vt 1.409717E-11 -39.36614
vt -0.7911094 -36.41368
vt -1.220232 -35.77145
vt -1.729511 -35.19073
vt -35.19073 -1.729511
vt -27.38385 35.2987
vt -29.52461 36.72911
vt -31.83376 37.86786
vt -34.27179 38.69546
vt -36.79699 39.19775
vt -35.77145 -1.220232
vt -36.41368 -0.7911094
vt -37.10643 -0.4494854
vt -39.36614 39.36614
vt -37.83784 -0.2012053
vt -38.59539 -0.05051742
vt -39.36614 2.364686E-11
vt -39.36614 35.42953
vt -39.36614 3.936614
vt -39.36614 -39.36614
vt -39.19775 -36.79699
vt -38.69546 -34.27179
vt -37.86786 -31.83376
vt -36.72911 -29.52461
vt -35.2987 -27.38385
vt -33.6011 -25.44811
vt 25.44811 33.6011
vt 27.38385 35.2987
vt 29.52461 36.72911
vt 31.83376 37.86786
vt 34.27179 38.69546
vt 36.79699 39.19775
vt 39.36614 39.36614
vt 43.86232 5.773701
vt 43.86232 1.911698E-15
vt 41.28765 5.773701
vt 41.28765 2.074972E-15
vt 45.29935 5.773701
vt 45.29935 3.387231E-15
vt 42.72469 5.773701
vt 42.72469 3.532009E-15
vt 44.95441 5.773701
vt 44.95441 2.644473E-15
vt 42.37975 5.773701
vt 42.37975 2.799828E-15
vt 44.89124 5.773701
vt 44.89124 4.082595E-15
vt 42.31657 5.773701
vt 42.31657 4.214318E-15
vt 43.73705 5.773701
vt 43.73705 4.674461E-15
vt 41.16238 5.773701
vt 41.16238 4.790875E-15
vt 39.36614 4.440892E-15
vt 35.42953 5.773701
vt 39.36614 5.773701
vt -42.72469 8.372325E-15
vt -45.29935 8.518189E-15
vt -42.72469 5.773701
vt -45.29935 5.773701
vt -41.59906 2.493189
vt -41.59906 5.773701
vt -39.53932 2.493189
vt -39.53932 5.773701
vt -44.69695 2.493189
vt -44.69695 5.773701
vt -42.63721 2.493189
vt -42.63721 5.773701
vt -43.60485 2.493189
vt -43.60485 5.773701
vt -41.54512 2.493189
vt -41.54512 5.773701
vt 41.54512 2.493189
vt 41.54512 5.773701
vt 43.60485 2.493189
vt 43.60485 5.773701
vt 44.69695 2.493189
vt 42.63721 2.493189
vt 44.69695 5.773701
vt 42.63721 5.773701
vt -41.7541 2.493189
vt -41.7541 5.773701
vt 41.7541 2.493189
vt 41.7541 5.773701
vt 43.47958 2.493189
vt 41.41984 2.493189
vt 43.47958 5.773701
vt 41.41984 5.773701
vt 39.53932 2.493189
vt 39.53932 5.773701
vt 41.59906 2.493189
vt 41.59906 5.773701
vt -44.63377 2.493189
vt -44.63377 5.773701
vt -42.57404 2.493189
vt -42.57404 5.773701
vt -42.31657 8.908168E-15
vt -44.89124 9.039277E-15
vt -42.31657 5.773701
vt -44.89124 5.773701
vt 41.85653 5.773701
vt 41.85653 5.111973E-15
vt 39.28186 5.773701
vt 39.28186 5.211086E-15
vt -39.36614 -2.045521E-27
vt -39.36614 5.773701
vt -35.42953 5.773701
vt 45.04189 2.493189
vt 42.98215 2.493189
vt 45.04189 5.773701
vt 42.98215 5.773701
vt -45.04189 2.493189
vt -45.04189 5.773701
vt -42.98215 2.493189
vt -42.98215 5.773701
vt -41.85653 7.412523E-15
vt -41.85653 5.773701
vt -39.28186 9.260254E-15
vt -39.28186 5.773701
vt 42.57404 2.493189
vt 42.57404 5.773701
vt 44.63377 2.493189
vt 44.63377 5.773701
vt -41.16238 9.21373E-15
vt -43.73705 9.32784E-15
vt -41.16238 5.773701
vt -43.73705 5.773701
vt -43.47958 2.493189
vt -43.47958 5.773701
vt -41.41984 2.493189
vt -41.41984 5.773701
vt -41.28765 6.786986E-15
vt -43.86232 6.954664E-15
vt -41.28765 5.773701
vt -43.86232 5.773701
vt -42.37975 7.647976E-15
vt -44.95441 7.8061E-15
vt -42.37975 5.773701
vt -44.95441 5.773701
vt 41.7541 1.654965E-15
vt -41.7541 6.416046E-15
vt -1.409673E-11 -39.36614
vt 0.05051742 -38.59539
vt 0.2012053 -37.83784
vt 0.4494854 -37.10643
vt 0.7911094 -36.41368
vt 1.220232 -35.77145
vt 1.729511 -35.19073
vt 35.19073 -1.729511
vt 35.77145 -1.220232
vt 36.41368 -0.7911094
vt 37.10643 -0.4494854
vt 37.83784 -0.2012053
vt 38.59539 -0.05051742
vt 39.36614 2.364696E-11
vt -23.66066 1.741765E-15
vt -23.66066 5.773701
vt 23.66066 4.935827E-15
vt 23.66066 5.773701
vt 25.31745 5.108161E-15
vt 25.31745 5.773701
vt 26.08985 5.157256E-15
vt 26.08985 5.773701
vt 29.06495 5.481577E-15
vt 29.06495 5.773701
vt 29.83735 5.536729E-15
vt 29.83735 5.773701
vt 32.30854 5.812033E-15
vt 32.30854 5.773701
vt 33.08094 5.872297E-15
vt 33.08094 5.773701
vt 37.07154 6.258353E-15
vt 37.07154 5.773701
vt 37.84394 6.32568E-15
vt 37.84394 5.773701
vt 38.50946 6.344168E-15
vt 38.50946 5.773701
vt 39.28186 6.413323E-15
vt -38.25199 2.493189
vt -38.25199 5.773701
vt 34.99271 6.076943E-15
vt 34.99271 5.773701
vt 35.76511 6.141289E-15
vt 35.76511 5.773701
vt -36.81407 2.493189
vt -38.10141 2.493189
vt -36.81407 5.773701
vt -38.10141 5.773701
vt 2.250999E-11 6.383782E-15
vt 2.250999E-11 5.773701
vt 3.936614 5.773701
vt -34.73524 2.493189
vt -36.02258 2.493189
vt -34.73524 5.773701
vt -36.02258 5.773701
vt -25.05998 2.493189
vt -26.34731 2.493189
vt -25.05998 5.773701
vt -26.34731 5.773701
vt 30.09482 5.773701
vt 30.09482 2.493189
vt 28.80749 5.773701
vt 28.80749 2.493189
vt 38.25199 5.773701
vt 38.25199 2.493189
vt -35.76511 1.825731E-15
vt -35.76511 5.773701
vt -34.99271 1.850129E-15
vt -34.99271 5.773701
vt -32.05107 2.493189
vt -33.33841 2.493189
vt -32.05107 5.773701
vt -33.33841 5.773701
vt -28.80749 2.493189
vt -30.09482 2.493189
vt -28.80749 5.773701
vt -30.09482 5.773701
vt -26.08985 1.639076E-15
vt -26.08985 5.773701
vt -25.31745 1.706763E-15
vt -25.31745 5.773701
vt 36.02258 5.773701
vt 36.02258 2.493189
vt 34.73524 5.773701
vt 34.73524 2.493189
vt 26.34731 5.773701
vt 26.34731 2.493189
vt 25.05998 5.773701
vt 25.05998 2.493189
vt -1.786304E-11 2.63678E-15
vt -1.786304E-11 5.773701
vt -3.936614 5.773701
vt -33.08094 1.653075E-15
vt -33.08094 5.773701
vt -32.30854 1.692663E-15
vt -32.30854 5.773701
vt 33.33841 5.773701
vt 33.33841 2.493189
vt 32.05107 5.773701
vt 32.05107 2.493189
vt -39.28186 2.446692E-15
vt -38.50946 2.439726E-15
vt -38.50946 5.773701
vt -29.83735 1.589415E-15
vt -29.83735 5.773701
vt -29.06495 1.643516E-15
vt -29.06495 5.773701
vt -37.84394 2.096098E-15
vt -37.84394 5.773701
vt -37.07154 2.10489E-15
vt -37.07154 5.773701
vt 38.10141 5.773701
vt 38.10141 2.493189
vt 36.81407 5.773701
vt 36.81407 2.493189
vt 23.66066 2.493189
vt -23.66066 2.493189

usemtl green

f 3/3/1 2/2/1 1/1/1
f 2/2/1 3/3/1 4/4/1
f 7/7/2 6/6/2 5/5/2
f 6/6/2 7/7/2 8/8/2
f 8/11/3 9/10/3 6/9/3
f 9/10/3 8/11/3 10/12/3
f 10/12/3 8/11/3 11/13/3
f 11/13/3 8/11/3 12/14/3
f 12/14/3 8/11/3 13/15/3
f 13/15/3 8/11/3 14/16/3
f 14/16/3 8/11/3 15/17/3
f 14/16/3 15/17/3 16/18/3
f 14/16/3 16/18/3 17/19/3
f 14/16/3 17/19/3 18/20/3
f 18/20/3 17/19/3 19/21/3
f 18/20/3 19/21/3 20/22/3
f 18/20/3 20/22/3 21/23/3
f 18/20/3 21/23/3 22/24/3
f 18/20/3 22/24/3 23/25/3
f 23/25/3 22/24/3 24/26/3
f 24/26/3 22/24/3 25/27/3
f 25/27/3 22/24/3 26/28/3
f 25/27/3 26/28/3 27/29/3
f 27/29/3 26/28/3 28/30/3
f 27/29/3 28/30/3 29/31/3
f 27/29/3 29/31/3 30/32/3
f 30/32/3 29/31/3 31/33/3
f 30/32/3 31/33/3 32/34/3
f 30/32/3 32/34/3 4/35/3
f 4/35/3 32/34/3 2/36/3

usemtl border

f 34/39/4 5/38/4 33/37/4
f 5/38/4 34/39/4 35/40/4
f 5/38/4 35/40/4 36/41/4
f 5/38/4 36/41/4 37/42/4
f 5/38/4 37/42/4 38/43/4
f 5/38/4 38/43/4 7/44/4
f 7/44/4 38/43/4 39/45/4
f 7/44/4 39/45/4 40/46/4
f 7/44/4 40/46/4 41/47/4
f 7/44/4 41/47/4 42/48/4
f 7/44/4 42/48/4 43/49/4
f 7/44/4 43/49/4 44/50/4
f 41/47/4 40/46/4 45/51/4
f 45/51/4 40/46/4 46/52/4
f 46/52/4 40/46/4 47/53/4
f 47/53/4 40/46/4 48/54/4
f 48/54/4 40/46/4 49/55/4
f 48/54/4 49/55/4 50/56/4
f 48/54/4 50/56/4 51/57/4
f 48/54/4 51/57/4 52/58/4
f 48/54/4 52/58/4 53/59/4
f 48/54/4 53/59/4 54/60/4
f 54/60/4 53/59/4 55/61/4
f 55/61/4 53/59/4 56/62/4
f 56/62/4 53/59/4 57/63/4
f 56/62/4 57/63/4 58/64/4
f 58/64/4 57/63/4 59/65/4
f 59/65/4 57/63/4 60/66/4
f 60/66/4 57/63/4 3/67/4
f 60/66/4 3/67/4 1/68/4
f 63/9/3 62/70/3 61/69/3
f 62/70/3 63/9/3 64/71/3
f 64/71/3 63/9/3 65/72/3
f 65/72/3 63/9/3 66/73/3
f 66/73/3 63/9/3 67/74/3
f 67/74/3 63/9/3 68/10/3
f 67/74/3 68/10/3 69/75/3
f 69/75/3 68/10/3 70/12/3
f 69/75/3 70/12/3 71/13/3
f 69/75/3 71/13/3 72/14/3
f 69/75/3 72/14/3 73/15/3
f 69/75/3 73/15/3 74/16/3
f 69/75/3 74/16/3 75/76/3
f 75/76/3 74/16/3 76/20/3
f 75/76/3 76/20/3 77/77/3
f 77/77/3 76/20/3 78/78/3
f 78/78/3 76/20/3 79/25/3
f 78/78/3 79/25/3 80/79/3
f 80/79/3 79/25/3 81/26/3
f 80/79/3 81/26/3 82/27/3
f 80/79/3 82/27/3 83/80/3
f 83/80/3 82/27/3 84/29/3
f 83/80/3 84/29/3 85/81/3
f 85/81/3 84/29/3 86/32/3
f 85/81/3 86/32/3 87/82/3
f 87/82/3 86/32/3 88/35/3
f 69/85/6 38/84/5 67/83/5
f 38/84/5 69/85/6 39/86/6
f 66/89/8 36/88/7 65/87/7
f 36/88/7 66/89/8 37/90/8
f 67/93/5 37/92/8 66/91/8
f 37/92/8 67/93/5 38/94/5
f 65/97/7 35/96/9 64/95/9
f 35/96/9 65/97/7 36/98/7
f 64/101/9 34/100/10 62/99/10
f 34/100/10 64/101/9 35/102/9
f 57/103/1 4/4/1 3/3/1
f 4/4/1 57/103/1 88/104/1
f 88/104/1 57/103/1 87/105/1
f 78/108/11 51/107/12 50/106/11
f 51/107/12 78/108/11 80/109/12
f 9/112/14 63/111/13 6/110/13
f 63/111/13 9/112/14 68/113/14
f 13/116/16 72/115/15 12/114/15
f 72/115/15 13/116/16 73/117/16
f 14/120/17 73/119/16 13/118/16
f 73/119/16 14/120/17 74/121/17
f 23/124/19 76/123/18 18/122/18
f 76/123/18 23/124/19 79/125/19
f 81/128/20 23/127/19 24/126/20
f 23/127/19 81/128/20 79/129/19
f 18/132/21 74/131/21 14/130/21
f 74/131/21 18/132/21 76/133/21
f 86/136/22 27/135/23 30/134/22
f 27/135/23 86/136/22 84/137/23
f 4/140/24 86/139/22 30/138/22
f 86/139/22 4/140/24 88/141/24
f 11/144/26 70/143/25 10/142/25
f 70/143/25 11/144/26 71/145/26
f 80/148/12 52/147/27 51/146/12
f 52/147/27 80/148/12 83/149/27
f 62/152/10 33/151/28 61/150/28
f 33/151/28 62/152/10 34/153/10
f 5/5/2 61/155/2 33/154/2
f 61/155/2 5/5/2 6/6/2
f 61/155/2 6/6/2 63/156/2
f 82/159/29 24/158/20 25/157/29
f 24/158/20 82/159/29 81/160/20
f 12/163/15 71/162/26 11/161/26
f 71/162/26 12/163/15 72/164/15
f 53/167/31 87/166/30 57/165/30
f 87/166/30 53/167/31 85/168/31
f 27/171/23 82/170/29 25/169/29
f 82/170/29 27/171/23 84/172/23
f 83/175/27 53/174/31 52/173/27
f 53/174/31 83/175/27 85/176/31
f 10/179/25 68/178/14 9/177/14
f 68/178/14 10/179/25 70/180/25
f 75/183/32 49/182/33 40/181/32
f 49/182/33 75/183/32 77/184/33
f 77/187/33 50/186/11 49/185/33
f 50/186/11 77/187/33 78/188/11
f 75/131/34 39/189/34 69/133/34
f 39/189/34 75/131/34 40/190/34
f 91/191/3 90/17/3 89/11/3
f 90/17/3 91/191/3 92/18/3
f 92/18/3 91/191/3 93/19/3
f 93/19/3 91/191/3 94/21/3
f 94/21/3 91/191/3 95/22/3
f 95/22/3 91/191/3 96/23/3
f 96/23/3 91/191/3 97/192/3
f 96/23/3 97/192/3 98/193/3
f 96/23/3 98/193/3 99/194/3
f 96/23/3 99/194/3 100/195/3
f 96/23/3 100/195/3 101/196/3
f 96/23/3 101/196/3 102/24/3
f 102/24/3 101/196/3 103/197/3
f 102/24/3 103/197/3 104/198/3
f 102/24/3 104/198/3 105/28/3
f 105/28/3 104/198/3 106/30/3
f 106/30/3 104/198/3 107/31/3
f 107/31/3 104/198/3 108/199/3
f 107/31/3 108/199/3 109/33/3
f 109/33/3 108/199/3 110/200/3
f 109/33/3 110/200/3 111/201/3
f 109/33/3 111/201/3 112/34/3
f 112/34/3 111/201/3 113/202/3
f 112/34/3 113/202/3 114/203/3
f 112/34/3 114/203/3 115/36/3
f 115/36/3 114/203/3 116/204/3
f 48/207/21 103/206/21 47/205/21
f 103/206/21 48/207/21 104/208/21
f 54/211/19 104/210/18 48/209/18
f 104/210/18 54/211/19 108/212/19
f 55/215/20 108/214/19 54/213/19
f 108/214/19 55/215/20 110/216/20
f 56/219/29 110/218/20 55/217/20
f 110/218/20 56/219/29 111/220/29
f 59/223/22 113/222/23 58/221/23
f 113/222/23 59/223/22 114/224/22
f 60/227/24 114/226/22 59/225/22
f 114/226/22 60/227/24 116/152/24
f 112/229/31 2/112/30 32/228/31
f 2/112/30 112/229/31 115/113/30
f 58/232/23 111/231/29 56/230/29
f 111/231/29 58/232/23 113/233/23
f 109/236/27 32/235/31 31/234/27
f 32/235/31 109/236/27 112/237/31
f 1/1/1 116/239/1 60/238/1
f 116/239/1 1/1/1 115/240/1
f 115/240/1 1/1/1 2/2/1
f 107/243/12 31/242/27 29/241/12
f 31/242/27 107/243/12 109/244/27
f 102/247/32 26/246/33 22/245/32
f 26/246/33 102/247/32 105/248/33
f 95/251/5 19/250/8 94/249/8
f 19/250/8 95/251/5 20/252/5
f 90/253/10 8/138/28 89/139/28
f 8/138/28 90/253/10 15/254/10
f 41/257/26 98/256/25 42/255/25
f 98/256/25 41/257/26 99/258/26
f 106/261/11 29/260/12 28/259/11
f 29/260/12 106/261/11 107/262/12
f 105/265/33 28/264/11 26/263/33
f 28/264/11 105/265/33 106/266/11
f 47/269/17 101/268/16 46/267/16
f 101/268/16 47/269/17 103/270/17
f 93/273/7 16/272/9 92/271/9
f 16/272/9 93/273/7 17/274/7
f 96/277/6 20/276/5 95/275/5
f 20/276/5 96/277/6 21/278/6
f 91/280/2 7/7/2 44/279/2
f 7/7/2 91/280/2 8/8/2
f 8/8/2 91/280/2 89/281/2
f 45/284/15 99/283/26 41/282/26
f 99/283/26 45/284/15 100/285/15
f 94/288/8 17/287/7 93/286/7
f 17/287/7 94/288/8 19/289/8
f 43/291/14 91/168/13 44/290/13
f 91/168/13 43/291/14 97/292/14
f 46/295/16 100/294/15 45/293/15
f 100/294/15 46/295/16 101/296/16
f 42/299/25 97/298/14 43/297/14
f 97/298/14 42/299/25 98/300/25
f 92/303/9 15/302/10 90/301/10
f 15/302/10 92/303/9 16/304/9
f 102/206/34 21/305/34 96/208/34
f 21/305/34 102/206/34 22/306/34

