# Created by Kenney (www.kenney.nl)

mtllib supports_bottom.mtl

g supports_bottom

v 0.4375 0.1 -0.5
v 0.5 0.1 -0.4375
v 0.425 0.2 -0.475
v 0.475 0.2 -0.425
v 0.3125 0 -0.5
v 0.3125 0.1 -0.5
v 0.25 0 -0.4375
v 0.25 0.1 -0.4375
v 0.4375 0 -0.5
v 0.5 0 -0.4375
v 0.4375 0 -0.25
v 0.3125 0 -0.25
v 0.4375 0.1 -0.25
v 0.3125 0.1 -0.25
v 0.25 0.1 -0.3125
v 0.325 0.2 -0.275
v 0.275 0.2 -0.325
v 0.5 0.1 -0.3125
v 0.475 0.2 -0.325
v 0.475 1 -0.425
v 0.475 1 -0.325
v 0.275 0.2 -0.425
v 0.325 0.2 -0.475
v 0.425 1 -0.475
v 0.5 0 -0.3125
v 0.25 0 -0.3125
v 0.275 1 -0.325
v 0.325 1 -0.275
v 0.425 0.2 -0.275
v 0.425 1 -0.275
v 0.325 1 -0.475
v 0.275 1 -0.425
v -0.4375 0 0.25
v -0.3125 0 0.25
v -0.4375 0.1 0.25
v -0.3125 0.1 0.25
v -0.25 0.1 0.3125
v -0.25 0 0.3125
v -0.25 0.1 0.4375
v -0.25 0 0.4375
v -0.3125 0 0.5
v -0.3125 0.1 0.5
v -0.5 0.1 0.3125
v -0.475 0.2 0.325
v -0.425 0.2 0.275
v -0.4375 0 0.5
v -0.5 0 0.4375
v -0.4375 0.1 0.5
v -0.5 0.1 0.4375
v -0.5 0 0.3125
v -0.275 0.2 0.325
v -0.275 0.2 0.425
v -0.425 0.2 0.475
v -0.475 0.2 0.425
v -0.325 0.2 0.475
v -0.325 0.2 0.275
v -0.475 1 0.325
v -0.425 1 0.275
v -0.275 1 0.425
v -0.325 1 0.475
v -0.325 1 0.275
v -0.275 1 0.325
v -0.425 1 0.475
v -0.475 1 0.425
v 0.4375 0.1 0.5
v 0.3125 0.1 0.5
v 0.425 0.2 0.475
v 0.325 0.2 0.475
v 0.475 0.2 0.425
v 0.5 0.1 0.4375
v 0.25 0 0.3125
v 0.3125 0 0.25
v 0.25 0.1 0.3125
v 0.3125 0.1 0.25
v 0.4375 0.1 0.25
v 0.5 0.1 0.3125
v 0.425 0.2 0.275
v 0.475 0.2 0.325
v 0.425 1 0.475
v 0.325 1 0.475
v 0.5 0 0.3125
v 0.5 0 0.4375
v 0.275 0.2 0.325
v 0.325 0.2 0.275
v 0.25 0 0.4375
v 0.25 0.1 0.4375
v 0.275 0.2 0.425
v 0.4375 0 0.5
v 0.4375 0 0.25
v 0.3125 0 0.5
v 0.475 1 0.325
v 0.475 1 0.425
v 0.425 1 0.275
v 0.325 1 0.275
v 0.275 1 0.325
v 0.275 1 0.425
v -0.4375 0 -0.25
v -0.5 0 -0.3125
v -0.4375 0.1 -0.25
v -0.5 0.1 -0.3125
v -0.3125 0.1 -0.5
v -0.3125 0 -0.5
v -0.25 0.1 -0.4375
v -0.25 0 -0.4375
v -0.25 0.1 -0.3125
v -0.25 0 -0.3125
v -0.5 0.1 -0.4375
v -0.4375 0.1 -0.5
v -0.475 0.2 -0.425
v -0.425 0.2 -0.475
v -0.325 0.2 -0.475
v -0.475 0.2 -0.325
v -0.3125 0 -0.25
v -0.3125 0.1 -0.25
v -0.4375 0 -0.5
v -0.5 0 -0.4375
v -0.325 0.2 -0.275
v -0.425 0.2 -0.275
v -0.275 0.2 -0.325
v -0.275 0.2 -0.425
v -0.275 1 -0.425
v -0.275 1 -0.325
v -0.325 1 -0.475
v -0.325 1 -0.275
v -0.425 1 -0.475
v -0.425 1 -0.275
v -0.475 1 -0.425
v -0.475 1 -0.325

vn 0.3723895 0.2686355 -0.8883473
vn 0.8883473 0.2686355 -0.3723895
vn 0.3640509 0.2684682 -0.8918474
vn 0.8918474 0.2684682 -0.3640509
vn -0.3826834 0 -0.9238795
vn -0.9238795 0 -0.3826834
vn 0.3826834 0 -0.9238795
vn 0.9238795 0 -0.3826834
vn 0.3826834 0 0.9238795
vn -0.3826834 0 0.9238795
vn -0.3723895 0.2686355 0.8883473
vn -0.8883473 0.2686355 0.3723895
vn -0.3640509 0.2684682 0.8918474
vn -0.8918474 0.2684682 0.3640509
vn 0.8883473 0.2686355 0.3723895
vn 0.8918474 0.2684682 0.3640509
vn 0.9238795 0 0.3826834
vn -0.8883473 0.2686355 -0.3723895
vn -0.3723895 0.2686355 -0.8883473
vn -0.8918474 0.2684682 -0.3640509
vn -0.3640509 0.2684682 -0.8918474
vn 0 -1 0
vn -0.9238795 0 0.3826834
vn 0.3640509 0.2684682 0.8918474
vn 0.3723895 0.2686355 0.8883473
vn 0 1 0

vt 1.739928 -2.883851
vt -1.739928 -2.883851
vt 1.391943 1.189217
vt -1.391943 1.189217
vt -22.61907 0
vt -22.61907 3.937008
vt -19.13921 0
vt -19.13921 3.937008
vt 1.739928 3.937008
vt 1.739928 0
vt -1.739928 3.937008
vt -1.739928 0
vt 17.22441 0
vt 12.30315 0
vt 17.22441 3.937008
vt 12.30315 3.937008
vt 1.739928 7.8191
vt -1.739928 7.8191
vt 1.391943 11.89217
vt -1.391943 11.89217
vt 17.22441 -0.9548647
vt 12.30315 -0.9548647
vt 16.73228 3.10331
vt 12.79528 3.10331
vt 16.73228 39.37008
vt 16.73228 7.874016
vt 12.79528 39.37008
vt 12.79528 7.874016
vt -19.13921 2.467625
vt -22.61907 2.467625
vt -19.48719 6.540692
vt -22.27108 6.540692
vt 1.391943 39.37008
vt 1.391943 7.874016
vt -1.391943 39.37008
vt -1.391943 7.874016
vt 19.68504 -12.30315
vt 19.68504 -17.22441
vt 17.22441 -9.84252
vt 17.22441 -19.68504
vt 12.30315 -19.68504
vt 12.30315 -9.84252
vt 9.84252 -12.30315
vt 9.84252 -17.22441
vt 22.27108 6.540692
vt 22.61907 2.467625
vt 19.48719 6.540692
vt 19.13921 2.467625
vt -12.79528 7.874016
vt -16.73228 7.874016
vt -12.79528 39.37008
vt -16.73228 39.37008
vt 22.27108 39.37008
vt 22.27108 7.874016
vt 19.48719 39.37008
vt 19.48719 7.874016
vt -12.30315 -0.9548647
vt -17.22441 -0.9548647
vt -12.79528 3.10331
vt -16.73228 3.10331
vt 17.22441 6.20662
vt 12.30315 6.20662
vt 16.73228 10.2648
vt 12.79528 10.2648
vt -12.30315 0
vt -17.22441 0
vt -12.30315 3.937008
vt -17.22441 3.937008
vt -18.70079 -16.73228
vt -18.70079 -12.79528
vt -16.73228 -18.70079
vt -16.73228 -10.82677
vt -12.79528 -18.70079
vt -12.79528 -10.82677
vt -10.82677 -16.73228
vt -10.82677 -12.79528
vt 22.61907 0
vt 19.13921 0
vt 22.61907 3.937008
vt 19.13921 3.937008
vt -19.48719 7.874016
vt -22.27108 7.874016
vt -19.48719 39.37008
vt -22.27108 39.37008
vt -17.22441 6.20662
vt -16.73228 10.2648
vt -12.30315 6.20662
vt -12.79528 10.2648
vt -9.84252 17.22441
vt -9.84252 12.30315
vt -12.30315 19.68504
vt -12.30315 9.84252
vt -17.22441 9.84252
vt -17.22441 19.68504
vt -19.68504 17.22441
vt -19.68504 12.30315
vt 10.82677 12.79528
vt 10.82677 16.73228
vt 12.79528 10.82677
vt 12.79528 18.70079
vt 16.73228 10.82677
vt 16.73228 18.70079
vt 18.70079 12.79528
vt 18.70079 16.73228
vt 19.68504 17.22441
vt 19.68504 12.30315
vt 17.22441 19.68504
vt 17.22441 9.84252
vt 12.30315 9.84252
vt 12.30315 19.68504
vt 9.84252 17.22441
vt 9.84252 12.30315
vt -18.70079 12.79528
vt -18.70079 16.73228
vt -16.73228 10.82677
vt -16.73228 18.70079
vt -12.79528 10.82677
vt -12.79528 18.70079
vt -10.82677 12.79528
vt -10.82677 16.73228
vt 10.82677 -16.73228
vt 10.82677 -12.79528
vt 12.79528 -18.70079
vt 12.79528 -10.82677
vt 16.73228 -18.70079
vt 16.73228 -10.82677
vt 18.70079 -16.73228
vt 18.70079 -12.79528
vt -9.84252 -12.30315
vt -9.84252 -17.22441
vt -12.30315 -9.84252
vt -12.30315 -19.68504
vt -17.22441 -19.68504
vt -17.22441 -9.84252
vt -19.68504 -12.30315
vt -19.68504 -17.22441

usemtl border

f 3/3/3 2/2/2 1/1/1
f 2/2/2 3/3/3 4/4/4
f 7/7/6 6/6/5 5/5/5
f 6/6/5 7/7/6 8/8/6
f 2/11/8 9/10/7 1/9/7
f 9/10/7 2/11/8 10/12/8
f 13/15/9 12/14/10 11/13/9
f 12/14/10 13/15/9 14/16/10
f 16/19/13 15/18/12 14/17/11
f 15/18/12 16/19/13 17/20/14
f 4/23/4 18/22/15 2/21/2
f 18/22/15 4/23/4 19/24/16
f 21/27/17 4/26/8 20/25/8
f 4/26/8 21/27/17 19/28/17
f 22/31/20 6/30/19 8/29/18
f 6/30/19 22/31/20 23/32/21
f 20/35/8 3/34/7 24/33/7
f 3/34/7 20/35/8 4/36/8
f 11/39/22 10/38/22 25/37/22
f 10/38/22 11/39/22 9/40/22
f 9/40/22 11/39/22 5/41/22
f 5/41/22 11/39/22 12/42/22
f 5/41/22 12/42/22 26/43/22
f 5/41/22 26/43/22 7/44/22
f 16/34/10 27/35/23 17/36/23
f 27/35/23 16/34/10 28/33/10
f 29/47/24 18/46/15 19/45/16
f 18/46/15 29/47/24 13/48/25
f 30/25/9 16/28/10 29/26/9
f 16/28/10 30/25/9 28/27/10
f 31/51/5 3/50/7 23/49/5
f 3/50/7 31/51/5 24/52/7
f 30/55/9 19/54/17 21/53/17
f 19/54/17 30/55/9 29/56/9
f 23/59/21 1/58/1 6/57/19
f 1/58/1 23/59/21 3/60/3
f 29/63/24 14/62/11 13/61/25
f 14/62/11 29/63/24 16/64/13
f 6/67/5 9/66/7 5/65/5
f 9/66/7 6/67/5 1/68/7
f 26/65/23 8/68/6 7/66/6
f 8/68/6 26/65/23 15/67/23
f 24/71/26 21/70/26 20/69/26
f 21/70/26 24/71/26 30/72/26
f 30/72/26 24/71/26 31/73/26
f 30/72/26 31/73/26 28/74/26
f 28/74/26 31/73/26 32/75/26
f 28/74/26 32/75/26 27/76/26
f 18/79/17 11/78/9 25/77/17
f 11/78/9 18/79/17 13/80/9
f 32/83/6 23/82/5 22/81/6
f 23/82/5 32/83/6 31/84/5
f 12/10/10 15/11/23 26/12/23
f 15/11/23 12/10/10 14/9/10
f 15/87/12 22/86/20 8/85/18
f 22/86/20 15/87/12 17/88/14
f 18/16/17 10/13/8 2/15/8
f 10/13/8 18/16/17 25/14/17
f 17/49/23 32/52/6 22/50/6
f 32/52/6 17/49/23 27/51/23
f 35/15/5 34/14/7 33/13/5
f 34/14/7 35/15/5 36/16/7
f 37/11/8 34/10/7 36/9/7
f 34/10/7 37/11/8 38/12/8
f 39/68/17 38/65/8 37/67/8
f 38/65/8 39/68/17 40/66/17
f 39/8/17 41/5/9 40/7/17
f 41/5/9 39/8/17 42/6/9
f 44/45/20 35/48/19 43/46/18
f 35/48/19 44/45/20 45/47/21
f 48/9/10 47/12/23 46/10/10
f 47/12/23 48/9/10 49/11/23
f 50/77/6 35/80/5 33/78/5
f 35/80/5 50/77/6 43/79/6
f 51/88/4 39/85/15 37/87/2
f 39/85/15 51/88/4 52/86/16
f 53/3/13 49/2/12 48/1/11
f 49/2/12 53/3/13 54/4/14
f 41/91/22 38/90/22 40/89/22
f 38/90/22 41/91/22 34/92/22
f 34/92/22 41/91/22 33/93/22
f 33/93/22 41/91/22 46/94/22
f 33/93/22 46/94/22 47/95/22
f 33/93/22 47/95/22 50/96/22
f 42/67/9 46/66/10 41/65/9
f 46/66/10 42/67/9 48/68/10
f 47/13/23 43/16/6 50/14/6
f 43/16/6 47/13/23 49/15/23
f 55/59/24 48/58/11 42/57/25
f 48/58/11 55/59/24 53/60/13
f 45/63/21 36/62/1 35/61/19
f 36/62/1 45/63/21 56/64/3
f 57/53/6 45/56/5 44/54/6
f 45/56/5 57/53/6 58/55/5
f 60/84/9 52/81/17 59/83/17
f 52/81/17 60/84/9 55/82/9
f 56/19/3 37/18/2 36/17/1
f 37/18/2 56/19/3 51/20/4
f 49/21/12 44/24/20 43/22/18
f 44/24/20 49/21/12 54/23/14
f 62/35/8 56/34/7 61/33/7
f 56/34/7 62/35/8 51/36/8
f 60/51/9 53/50/10 55/49/9
f 53/50/10 60/51/9 63/52/10
f 61/99/26 59/98/26 62/97/26
f 59/98/26 61/99/26 60/100/26
f 60/100/26 61/99/26 58/101/26
f 60/100/26 58/101/26 63/102/26
f 63/102/26 58/101/26 57/103/26
f 63/102/26 57/103/26 64/104/26
f 58/25/5 56/28/7 45/26/5
f 56/28/7 58/25/5 61/27/7
f 54/26/23 57/27/6 44/28/6
f 57/27/6 54/26/23 64/25/23
f 59/52/17 51/49/8 62/51/8
f 51/49/8 59/52/17 52/50/17
f 53/34/10 64/35/23 54/36/23
f 64/35/23 53/34/10 63/33/10
f 55/32/24 39/29/15 52/31/16
f 39/29/15 55/32/24 42/30/25
f 67/23/24 66/22/11 65/21/25
f 66/22/11 67/23/24 68/24/13
f 67/4/24 70/1/15 69/3/16
f 70/1/15 67/4/24 65/2/25
f 73/9/6 72/12/5 71/10/6
f 72/12/5 73/9/6 74/11/5
f 77/31/3 76/30/2 75/29/1
f 76/30/2 77/31/3 78/32/4
f 79/25/9 68/28/10 67/26/9
f 68/28/10 79/25/9 80/27/10
f 70/68/17 81/65/8 76/67/8
f 81/65/8 70/68/17 82/66/17
f 83/19/20 74/18/19 73/17/18
f 74/18/19 83/19/20 84/20/21
f 85/13/23 73/16/6 71/14/6
f 73/16/6 85/13/23 86/15/23
f 68/45/13 86/48/12 66/46/11
f 86/48/12 68/45/13 87/47/14
f 78/59/4 70/58/15 76/57/2
f 70/58/15 78/59/4 69/60/16
f 88/107/22 81/106/22 82/105/22
f 81/106/22 88/107/22 89/108/22
f 89/108/22 88/107/22 72/109/22
f 72/109/22 88/107/22 90/110/22
f 72/109/22 90/110/22 85/111/22
f 72/109/22 85/111/22 71/112/22
f 93/115/26 92/114/26 91/113/26
f 92/114/26 93/115/26 79/116/26
f 79/116/26 93/115/26 94/117/26
f 79/116/26 94/117/26 80/118/26
f 80/118/26 94/117/26 95/119/26
f 80/118/26 95/119/26 96/120/26
f 74/67/5 89/66/7 72/65/5
f 89/66/7 74/67/5 75/68/7
f 76/6/8 89/7/7 75/8/7
f 89/7/7 76/6/8 81/5/8
f 70/9/17 88/12/9 82/10/17
f 88/12/9 70/9/17 65/11/9
f 84/88/21 75/85/1 74/87/19
f 75/85/1 84/88/21 77/86/3
f 86/61/12 83/64/20 73/62/18
f 83/64/20 86/61/12 87/63/14
f 66/79/10 85/78/23 90/77/10
f 85/78/23 66/79/10 86/80/23
f 65/15/9 90/14/10 88/13/9
f 90/14/10 65/15/9 66/16/10
f 68/54/10 96/55/23 87/56/23
f 96/55/23 68/54/10 80/53/10
f 79/35/9 69/34/17 92/33/17
f 69/34/17 79/35/9 67/36/9
f 92/52/17 78/49/8 91/51/8
f 78/49/8 92/52/17 69/50/17
f 87/26/23 95/27/6 83/28/6
f 95/27/6 87/26/23 96/25/23
f 94/51/5 77/50/7 84/49/5
f 77/50/7 94/51/5 93/52/7
f 91/84/8 77/81/7 93/83/7
f 77/81/7 91/84/8 78/82/8
f 95/33/6 84/36/5 83/34/6
f 84/36/5 95/33/6 94/35/5
f 99/8/10 98/5/23 97/7/10
f 98/5/23 99/8/10 100/6/23
f 103/80/8 102/77/7 101/79/7
f 102/77/7 103/80/8 104/78/8
f 105/16/17 104/13/8 103/15/8
f 104/13/8 105/16/17 106/14/17
f 109/3/20 108/2/19 107/1/18
f 108/2/19 109/3/20 110/4/21
f 110/23/21 101/22/1 108/21/19
f 101/22/1 110/23/21 111/24/3
f 100/57/12 109/60/20 107/58/18
f 109/60/20 100/57/12 112/59/14
f 114/67/9 97/66/10 113/65/9
f 97/66/10 114/67/9 99/68/10
f 116/10/6 108/11/5 115/12/5
f 108/11/5 116/10/6 107/9/6
f 117/88/24 99/85/11 114/87/25
f 99/85/11 117/88/24 118/86/13
f 118/31/13 100/30/12 99/29/11
f 100/30/12 118/31/13 112/32/14
f 117/20/24 105/17/15 119/19/16
f 105/17/15 117/20/24 114/18/25
f 120/63/4 105/62/15 103/61/2
f 105/62/15 120/63/4 119/64/16
f 123/123/26 122/122/26 121/121/26
f 122/122/26 123/123/26 124/124/26
f 124/124/26 123/123/26 125/125/26
f 124/124/26 125/125/26 126/126/26
f 126/126/26 125/125/26 127/127/26
f 126/126/26 127/127/26 128/128/26
f 98/65/23 107/68/6 116/66/6
f 107/68/6 98/65/23 100/67/23
f 113/131/22 104/130/22 106/129/22
f 104/130/22 113/131/22 102/132/22
f 102/132/22 113/131/22 115/133/22
f 115/133/22 113/131/22 97/134/22
f 115/133/22 97/134/22 98/135/22
f 115/133/22 98/135/22 116/136/22
f 111/45/3 103/48/2 101/46/1
f 103/48/2 111/45/3 120/47/4
f 108/15/5 102/14/7 115/13/5
f 102/14/7 108/15/5 101/16/7
f 114/11/9 106/10/17 105/9/17
f 106/10/17 114/11/9 113/12/9
f 125/25/5 111/28/7 110/26/5
f 111/28/7 125/25/5 123/27/7
f 112/49/23 127/52/6 109/50/6
f 127/52/6 112/49/23 128/51/23
f 122/27/17 120/26/8 121/25/8
f 120/26/8 122/27/17 119/28/17
f 124/35/9 119/34/17 122/33/17
f 119/34/17 124/35/9 117/36/9
f 124/51/9 118/50/10 117/49/9
f 118/50/10 124/51/9 126/52/10
f 118/81/10 128/84/23 112/82/23
f 128/84/23 118/81/10 126/83/10
f 127/33/6 110/36/5 109/34/6
f 110/36/5 127/33/6 125/35/5
f 121/55/8 111/54/7 123/53/7
f 111/54/7 121/55/8 120/56/8

