# Created by Kenney (www.kenney.nl)

mtllib support.mtl

g support

v -0.2 -9.023893E-17 0.1
v -0.2 1 0.1
v -0.1 -9.023893E-17 0.2
v -0.1 1 0.2
v 0.2 1 -0.1
v 0.2 1 0.1
v 0.1 1 -0.2
v 0.1 1 0.2
v -0.1 1 -0.2
v -0.2 1 -0.1
v -0.1 -9.023893E-17 -0.2
v 0.1 -9.023893E-17 -0.2
v -0.2 -9.023893E-17 -0.1
v 0.1 -9.023893E-17 0.2
v 0.2 -9.023893E-17 -0.1
v 0.2 -9.023893E-17 0.1

vn -0.9238795 0 0.3826834
vn -0.3826834 0 0.9238795
vn 0 1 0
vn -0.3826834 0 -0.9238795
vn 0.3826834 0 -0.9238795
vn -0.9238795 0 -0.3826834
vn 0.3826834 0 0.9238795
vn 0.9238795 0 -0.3826834
vn 0.9238795 0 0.3826834
vn 0 -1 0

vt -2.783885 -3.552714E-15
vt -2.783885 39.37008
vt 2.783885 -3.552714E-15
vt 2.783885 39.37008
vt -7.874016 -3.937008
vt -7.874016 3.937008
vt -3.937008 -7.874016
vt -3.937008 7.874016
vt 3.937008 -7.874016
vt 3.937008 7.874016
vt 7.874016 -3.937008
vt 7.874016 3.937008
vt 3.937008 -3.552714E-15
vt -3.937008 -3.552714E-15
vt 3.937008 39.37008
vt -3.937008 39.37008

usemtl border

f 3/3/2 2/2/1 1/1/1
f 2/2/1 3/3/2 4/4/2
f 7/7/3 6/6/3 5/5/3
f 6/6/3 7/7/3 8/8/3
f 8/8/3 7/7/3 9/9/3
f 8/8/3 9/9/3 4/10/3
f 4/10/3 9/9/3 10/11/3
f 4/10/3 10/11/3 2/12/3
f 9/15/4 12/14/5 11/13/4
f 12/14/5 9/15/4 7/16/5
f 10/4/6 11/1/4 13/3/6
f 11/1/4 10/4/6 9/2/4
f 8/15/7 3/14/2 14/13/7
f 3/14/2 8/15/7 4/16/2
f 1/13/1 10/16/6 13/14/6
f 10/16/6 1/13/1 2/15/1
f 5/2/8 12/3/5 7/4/5
f 12/3/5 5/2/8 15/1/8
f 6/16/9 15/13/8 5/15/8
f 15/13/8 6/16/9 16/14/9
f 8/2/7 16/3/9 6/4/9
f 16/3/9 8/2/7 14/1/7
f 14/10/10 15/11/10 16/12/10
f 15/11/10 14/10/10 12/9/10
f 12/9/10 14/10/10 3/8/10
f 12/9/10 3/8/10 11/7/10
f 11/7/10 3/8/10 1/6/10
f 11/7/10 1/6/10 13/5/10

