# Created by Kenney (www.kenney.nl)

mtllib supports.mtl

g supports

v -0.275 1 -0.425
v -0.275 1 -0.325
v -0.325 1 -0.475
v -0.325 1 -0.275
v -0.425 1 -0.475
v -0.425 1 -0.275
v -0.475 1 -0.425
v -0.475 1 -0.325
v -0.275 1 0.325
v -0.275 1 0.425
v -0.325 1 0.275
v -0.325 1 0.475
v -0.425 1 0.275
v -0.425 1 0.475
v -0.475 1 0.325
v -0.475 1 0.425
v 0.475 1 -0.425
v 0.475 1 -0.325
v 0.425 1 -0.475
v 0.425 1 -0.275
v 0.325 1 -0.475
v 0.325 1 -0.275
v 0.275 1 -0.425
v 0.275 1 -0.325
v 0.475 1 0.325
v 0.475 1 0.425
v 0.425 1 0.275
v 0.425 1 0.475
v 0.325 1 0.275
v 0.325 1 0.475
v 0.275 1 0.325
v 0.275 1 0.425
v 0.475 0 -0.325
v 0.475 0 -0.425
v 0.425 0 -0.275
v 0.425 0 -0.475
v 0.325 0 -0.275
v 0.325 0 -0.475
v 0.275 0 -0.325
v 0.275 0 -0.425
v -0.275 0 -0.325
v -0.275 0 -0.425
v -0.325 0 -0.275
v -0.325 0 -0.475
v -0.425 0 -0.275
v -0.425 0 -0.475
v -0.475 0 -0.325
v -0.475 0 -0.425
v -0.275 0 0.425
v -0.275 0 0.325
v -0.325 0 0.475
v -0.325 0 0.275
v -0.425 0 0.475
v -0.425 0 0.275
v -0.475 0 0.425
v -0.475 0 0.325
v 0.475 0 0.425
v 0.475 0 0.325
v 0.425 0 0.475
v 0.425 0 0.275
v 0.325 0 0.475
v 0.325 0 0.275
v 0.275 0 0.425
v 0.275 0 0.325

vn 0 1 0
vn 0 -1 0
vn 0.3826834 0 0.9238795
vn -0.3826834 0 0.9238795
vn -0.3826834 0 -0.9238795
vn 0.3826834 0 -0.9238795
vn 0.9238795 0 0.3826834
vn -0.9238795 0 -0.3826834
vn 0.9238795 0 -0.3826834
vn -0.9238795 0 0.3826834

vt 10.82677 -16.73228
vt 10.82677 -12.79528
vt 12.79528 -18.70079
vt 12.79528 -10.82677
vt 16.73228 -18.70079
vt 16.73228 -10.82677
vt 18.70079 -16.73228
vt 18.70079 -12.79528
vt 10.82677 12.79528
vt 10.82677 16.73228
vt 12.79528 10.82677
vt 12.79528 18.70079
vt 16.73228 10.82677
vt 16.73228 18.70079
vt 18.70079 12.79528
vt 18.70079 16.73228
vt -18.70079 -16.73228
vt -18.70079 -12.79528
vt -16.73228 -18.70079
vt -16.73228 -10.82677
vt -12.79528 -18.70079
vt -12.79528 -10.82677
vt -10.82677 -16.73228
vt -10.82677 -12.79528
vt -18.70079 12.79528
vt -18.70079 16.73228
vt -16.73228 10.82677
vt -16.73228 18.70079
vt -12.79528 10.82677
vt -12.79528 18.70079
vt -10.82677 12.79528
vt -10.82677 16.73228
vt 16.73228 0
vt 12.79528 0
vt 16.73228 39.37008
vt 12.79528 39.37008
vt 22.27108 39.37008
vt 22.27108 0
vt 19.48719 39.37008
vt 19.48719 0
vt 1.391943 39.37008
vt 1.391943 0
vt -1.391943 39.37008
vt -1.391943 0
vt -12.79528 0
vt -16.73228 0
vt -12.79528 39.37008
vt -16.73228 39.37008
vt -22.27108 0
vt -22.27108 39.37008
vt -19.48719 0
vt -19.48719 39.37008

usemtl border

f 3/3/1 2/2/1 1/1/1
f 2/2/1 3/3/1 4/4/1
f 4/4/1 3/3/1 5/5/1
f 4/4/1 5/5/1 6/6/1
f 6/6/1 5/5/1 7/7/1
f 6/6/1 7/7/1 8/8/1
f 1/1/2 2/2/2 3/3/2
f 4/4/2 3/3/2 2/2/2
f 5/5/2 3/3/2 4/4/2
f 6/6/2 5/5/2 4/4/2
f 7/7/2 5/5/2 6/6/2
f 8/8/2 7/7/2 6/6/2
f 11/11/1 10/10/1 9/9/1
f 10/10/1 11/11/1 12/12/1
f 12/12/1 11/11/1 13/13/1
f 12/12/1 13/13/1 14/14/1
f 14/14/1 13/13/1 15/15/1
f 14/14/1 15/15/1 16/16/1
f 9/9/2 10/10/2 11/11/2
f 12/12/2 11/11/2 10/10/2
f 13/13/2 11/11/2 12/12/2
f 14/14/2 13/13/2 12/12/2
f 15/15/2 13/13/2 14/14/2
f 16/16/2 15/15/2 14/14/2
f 19/19/1 18/18/1 17/17/1
f 18/18/1 19/19/1 20/20/1
f 20/20/1 19/19/1 21/21/1
f 20/20/1 21/21/1 22/22/1
f 22/22/1 21/21/1 23/23/1
f 22/22/1 23/23/1 24/24/1
f 17/17/2 18/18/2 19/19/2
f 20/20/2 19/19/2 18/18/2
f 21/21/2 19/19/2 20/20/2
f 22/22/2 21/21/2 20/20/2
f 23/23/2 21/21/2 22/22/2
f 24/24/2 23/23/2 22/22/2
f 27/27/1 26/26/1 25/25/1
f 26/26/1 27/27/1 28/28/1
f 28/28/1 27/27/1 29/29/1
f 28/28/1 29/29/1 30/30/1
f 30/30/1 29/29/1 31/31/1
f 30/30/1 31/31/1 32/32/1
f 25/25/2 26/26/2 27/27/2
f 28/28/2 27/27/2 26/26/2
f 29/29/2 27/27/2 28/28/2
f 30/30/2 29/29/2 28/28/2
f 31/31/2 29/29/2 30/30/2
f 32/32/2 31/31/2 30/30/2
f 35/6/2 34/7/2 33/8/2
f 34/7/2 35/6/2 36/5/2
f 36/5/2 35/6/2 37/4/2
f 36/5/2 37/4/2 38/3/2
f 38/3/2 37/4/2 39/2/2
f 38/3/2 39/2/2 40/1/2
f 33/8/1 34/7/1 35/6/1
f 36/5/1 35/6/1 34/7/1
f 37/4/1 35/6/1 36/5/1
f 38/3/1 37/4/1 36/5/1
f 39/2/1 37/4/1 38/3/1
f 40/1/1 39/2/1 38/3/1
f 20/35/3 37/34/4 35/33/3
f 37/34/4 20/35/3 22/36/4
f 35/33/5 37/34/6 20/35/5
f 22/36/6 20/35/5 37/34/6
f 20/39/3 33/38/7 18/37/7
f 33/38/7 20/39/3 35/40/3
f 18/37/8 33/38/8 20/39/5
f 35/40/5 20/39/5 33/38/8
f 18/36/7 34/33/9 17/35/9
f 34/33/9 18/36/7 33/34/7
f 17/35/10 34/33/10 18/36/8
f 33/34/8 18/36/8 34/33/10
f 17/43/9 36/42/6 19/41/6
f 36/42/6 17/43/9 34/44/9
f 19/41/4 36/42/4 17/43/10
f 34/44/10 17/43/10 36/42/4
f 21/47/5 36/46/6 38/45/5
f 36/46/6 21/47/5 19/48/6
f 38/45/3 36/46/4 21/47/3
f 19/48/4 21/47/3 36/46/4
f 40/51/8 21/50/5 38/49/5
f 21/50/5 40/51/8 23/52/8
f 38/49/3 21/50/3 40/51/7
f 23/52/7 40/51/7 21/50/3
f 39/45/10 23/48/8 40/46/8
f 23/48/8 39/45/10 24/47/10
f 40/46/7 23/48/7 39/45/9
f 24/47/9 39/45/9 23/48/7
f 37/42/4 24/43/10 39/44/10
f 24/43/10 37/42/4 22/41/4
f 39/44/9 24/43/9 37/42/6
f 22/41/6 37/42/6 24/43/9
f 43/22/2 42/23/2 41/24/2
f 42/23/2 43/22/2 44/21/2
f 44/21/2 43/22/2 45/20/2
f 44/21/2 45/20/2 46/19/2
f 46/19/2 45/20/2 47/18/2
f 46/19/2 47/18/2 48/17/2
f 41/24/1 42/23/1 43/22/1
f 44/21/1 43/22/1 42/23/1
f 45/20/1 43/22/1 44/21/1
f 46/19/1 45/20/1 44/21/1
f 47/18/1 45/20/1 46/19/1
f 48/17/1 47/18/1 46/19/1
f 4/47/3 45/46/4 43/45/3
f 45/46/4 4/47/3 6/48/4
f 43/45/5 45/46/6 4/47/5
f 6/48/6 4/47/5 45/46/6
f 4/43/3 41/42/7 2/41/7
f 41/42/7 4/43/3 43/44/3
f 2/41/8 41/42/8 4/43/5
f 43/44/5 4/43/5 41/42/8
f 2/36/7 42/33/9 1/35/9
f 42/33/9 2/36/7 41/34/7
f 1/35/10 42/33/10 2/36/8
f 41/34/8 2/36/8 42/33/10
f 1/39/9 44/38/6 3/37/6
f 44/38/6 1/39/9 42/40/9
f 3/37/4 44/38/4 1/39/10
f 42/40/10 1/39/10 44/38/4
f 5/35/5 44/34/6 46/33/5
f 44/34/6 5/35/5 3/36/6
f 46/33/3 44/34/4 5/35/3
f 3/36/4 5/35/3 44/34/4
f 48/42/8 5/43/5 46/44/5
f 5/43/5 48/42/8 7/41/8
f 46/44/3 5/43/3 48/42/7
f 7/41/7 48/42/7 5/43/3
f 47/45/10 7/48/8 48/46/8
f 7/48/8 47/45/10 8/47/10
f 48/46/7 7/48/7 47/45/9
f 8/47/9 47/45/9 7/48/7
f 45/51/4 8/50/10 47/49/10
f 8/50/10 45/51/4 6/52/4
f 47/49/9 8/50/9 45/51/6
f 6/52/6 45/51/6 8/50/9
f 51/30/2 50/31/2 49/32/2
f 50/31/2 51/30/2 52/29/2
f 52/29/2 51/30/2 53/28/2
f 52/29/2 53/28/2 54/27/2
f 54/27/2 53/28/2 55/26/2
f 54/27/2 55/26/2 56/25/2
f 49/32/1 50/31/1 51/30/1
f 52/29/1 51/30/1 50/31/1
f 53/28/1 51/30/1 52/29/1
f 54/27/1 53/28/1 52/29/1
f 55/26/1 53/28/1 54/27/1
f 56/25/1 55/26/1 54/27/1
f 12/47/3 53/46/4 51/45/3
f 53/46/4 12/47/3 14/48/4
f 51/45/5 53/46/6 12/47/5
f 14/48/6 12/47/5 53/46/6
f 12/50/3 49/51/7 10/52/7
f 49/51/7 12/50/3 51/49/3
f 10/52/8 49/51/8 12/50/5
f 51/49/5 12/50/5 49/51/8
f 10/48/7 50/45/9 9/47/9
f 50/45/9 10/48/7 49/46/7
f 9/47/10 50/45/10 10/48/8
f 49/46/8 10/48/8 50/45/10
f 9/43/9 52/42/6 11/41/6
f 52/42/6 9/43/9 50/44/9
f 11/41/4 52/42/4 9/43/10
f 50/44/10 9/43/10 52/42/4
f 13/35/5 52/34/6 54/33/5
f 52/34/6 13/35/5 11/36/6
f 54/33/3 52/34/4 13/35/3
f 11/36/4 13/35/3 52/34/4
f 56/38/8 13/39/5 54/40/5
f 13/39/5 56/38/8 15/37/8
f 54/40/3 13/39/3 56/38/7
f 15/37/7 56/38/7 13/39/3
f 55/33/10 15/36/8 56/34/8
f 15/36/8 55/33/10 16/35/10
f 56/34/7 15/36/7 55/33/9
f 16/35/9 55/33/9 15/36/7
f 53/42/4 16/43/10 55/44/10
f 16/43/10 53/42/4 14/41/4
f 55/44/9 16/43/9 53/42/6
f 14/41/6 53/42/6 16/43/9
f 59/14/2 58/15/2 57/16/2
f 58/15/2 59/14/2 60/13/2
f 60/13/2 59/14/2 61/12/2
f 60/13/2 61/12/2 62/11/2
f 62/11/2 61/12/2 63/10/2
f 62/11/2 63/10/2 64/9/2
f 57/16/1 58/15/1 59/14/1
f 60/13/1 59/14/1 58/15/1
f 61/12/1 59/14/1 60/13/1
f 62/11/1 61/12/1 60/13/1
f 63/10/1 61/12/1 62/11/1
f 64/9/1 63/10/1 62/11/1
f 28/35/3 61/34/4 59/33/3
f 61/34/4 28/35/3 30/36/4
f 59/33/5 61/34/6 28/35/5
f 30/36/6 28/35/5 61/34/6
f 28/43/3 57/42/7 26/41/7
f 57/42/7 28/43/3 59/44/3
f 26/41/8 57/42/8 28/43/5
f 59/44/5 28/43/5 57/42/8
f 26/48/7 58/45/9 25/47/9
f 58/45/9 26/48/7 57/46/7
f 25/47/10 58/45/10 26/48/8
f 57/46/8 26/48/8 58/45/10
f 25/50/9 60/51/6 27/52/6
f 60/51/6 25/50/9 58/49/9
f 27/52/4 60/51/4 25/50/10
f 58/49/10 25/50/10 60/51/4
f 29/47/5 60/46/6 62/45/5
f 60/46/6 29/47/5 27/48/6
f 62/45/3 60/46/4 29/47/3
f 27/48/4 29/47/3 60/46/4
f 64/42/8 29/43/5 62/44/5
f 29/43/5 64/42/8 31/41/8
f 62/44/3 29/43/3 64/42/7
f 31/41/7 64/42/7 29/43/3
f 63/33/10 31/36/8 64/34/8
f 31/36/8 63/33/10 32/35/10
f 64/34/7 31/36/7 63/33/9
f 32/35/9 63/33/9 31/36/7
f 61/38/4 32/39/10 63/40/10
f 32/39/10 61/38/4 30/37/4
f 63/40/9 32/39/9 61/38/6
f 30/37/6 61/38/6 32/39/9

