# Created by Kenney (www.kenney.nl)

mtllib tunnelDouble.mtl

g tunnelDouble

v 0.49995 0 0.49995
v 0.39996 0 0.49995
v 0.49995 0.146652 0.49995
v 0.39996 0.063327 0.49995
v 0.39996 0.146652 0.49995
v 0.49995 0 -0.49995
v 0.39996 0 -0.49995
v -0.39996 0 -0.49995
v -0.39996 0 0.49995
v -0.49995 0 -0.49995
v -0.49995 0 0.49995
v -0.29997 0.063327 -0.39996
v -0.29997 0.063327 0.39996
v -0.39996 0.063327 -0.39996
v -0.39996 0.063327 0.39996
v 0.49995 0.146652 -0.49995
v -0.39996 0.146652 -0.49995
v -0.39996 0.146652 -0.39996
v -0.49995 0.146652 -0.49995
v -0.39996 0.146652 0.39996
v -0.39996 0.146652 0.49995
v -0.49995 0.146652 0.49995
v -0.39996 0.063327 -0.49995
v 0.39996 0.146652 -0.49995
v 0.39996 0.146652 -0.39996
v 0.39996 0.146652 0.39996
v 0.39996 0.063327 -0.39996
v 0.39996 0.063327 0.39996
v -0.39996 0.063327 0.49995
v 0.39996 0.063327 -0.49995
v 0.29997 0.063327 -0.39996
v 0.29997 0.063327 0.39996
v 0.09999 0.063327 -0.39996
v 0.09999 0.063327 0.39996
v -0.09999 0.063327 -0.39996
v -0.09999 0.063327 0.39996
v 0.39996 0.296637 -0.39996
v 0.39996 0.296637 0.39996
v -0.39996 0.296637 -0.39996
v -0.39996 0.296637 0.39996
v -0.29997 0.129987 -0.39996
v -0.2965629 0.1558663 -0.39996
v -0.2865739 0.179982 -0.39996
v -0.2706836 0.2006906 -0.39996
v -0.249975 0.2165809 -0.39996
v -0.2258593 0.2265699 -0.39996
v -0.19998 0.229977 -0.39996
v 0.19998 0.229977 -0.39996
v 0.1741007 0.2265699 -0.39996
v -0.1741007 0.2265699 -0.39996
v 0.149985 0.2165809 -0.39996
v -0.149985 0.2165809 -0.39996
v 0.1292764 0.2006906 -0.39996
v -0.1292764 0.2006906 -0.39996
v 0.1133861 0.179982 -0.39996
v -0.1133861 0.179982 -0.39996
v 0.1033971 0.1558663 -0.39996
v -0.1033971 0.1558663 -0.39996
v 0.09999 0.129987 -0.39996
v -0.09999 0.129987 -0.39996
v 0.2258593 0.2265699 -0.39996
v 0.249975 0.2165809 -0.39996
v 0.2706836 0.2006906 -0.39996
v 0.2865739 0.179982 -0.39996
v 0.2965629 0.1558663 -0.39996
v 0.29997 0.129987 -0.39996
v 0.29997 0.129987 0.39996
v 0.2965629 0.1558663 0.39996
v 0.2865739 0.179982 0.39996
v 0.2706836 0.2006906 0.39996
v 0.249975 0.2165809 0.39996
v 0.2258593 0.2265699 0.39996
v 0.19998 0.229977 0.39996
v -0.19998 0.229977 0.39996
v 0.1741007 0.2265699 0.39996
v -0.1741007 0.2265699 0.39996
v 0.149985 0.2165809 0.39996
v -0.149985 0.2165809 0.39996
v 0.1292764 0.2006906 0.39996
v -0.1292764 0.2006906 0.39996
v 0.1133861 0.179982 0.39996
v -0.1133861 0.179982 0.39996
v -0.2258593 0.2265699 0.39996
v 0.1033971 0.1558663 0.39996
v -0.1033971 0.1558663 0.39996
v -0.09999 0.129987 0.39996
v 0.09999 0.129987 0.39996
v -0.249975 0.2165809 0.39996
v -0.2706836 0.2006906 0.39996
v -0.2865739 0.179982 0.39996
v -0.2965629 0.1558663 0.39996
v -0.29997 0.129987 0.39996

vn 0 0 1
vn 0 -1 0
vn 0 1 0
vn 1 0 0
vn -1 0 0
vn 0 0 -1
vn -0.9978589 -0.06540313 0
vn -0.9659258 -0.258819 0
vn 0.9978589 -0.06540313 0
vn 0.9659258 -0.258819 0
vn 0.8660254 -0.5 0
vn 0.7071068 -0.7071068 0
vn 0.5 -0.8660254 0
vn 0.258819 -0.9659258 0
vn -0.258819 -0.9659258 0
vn -0.5 -0.8660254 0
vn -0.7071068 -0.7071068 0
vn -0.8660254 -0.5 0

vt 19.68307 6.146202E-14
vt 15.74646 6.146202E-14
vt 19.68307 5.773701
vt 15.74646 2.493189
vt 15.74646 5.773701
vt 19.68307 -19.68307
vt 15.74646 -19.68307
vt 19.68307 19.68307
vt 15.74646 19.68307
vt -15.74646 -19.68307
vt -15.74646 19.68307
vt -19.68307 -19.68307
vt -19.68307 19.68307
vt 11.80984 -15.74646
vt 11.80984 15.74646
vt 15.74646 -15.74646
vt 15.74646 15.74646
vt 19.68307 0
vt -19.68307 5.773701
vt -19.68307 0
vt 19.68307 -1.893243E-30
vt 15.74646 -1.893243E-30
vt -15.74646 -15.74646
vt -15.74646 15.74646
vt -15.74646 5.773701
vt -15.74646 2.493189
vt -15.74646 5.608987E-14
vt -19.68307 6.146202E-14
vt -15.74646 -6.941891E-30
vt -19.68307 -6.941891E-30
vt 19.68307 2.493189
vt -19.68307 2.493189
vt -11.80984 -15.74646
vt -11.80984 15.74646
vt -3.936614 -15.74646
vt -3.936614 15.74646
vt 3.936614 -15.74646
vt 3.936614 15.74646
vt 15.74646 11.67862
vt -15.74646 11.67862
vt 11.80984 2.493189
vt 11.80984 5.117599
vt 11.67571 6.136469
vt 11.28244 7.085906
vt 10.65683 7.901205
vt 9.841536 8.526806
vt 8.892099 8.920075
vt 7.873229 9.054213
vt -7.873229 9.054213
vt -6.854358 8.920075
vt 6.854358 8.920075
vt -5.904922 8.526806
vt 5.904921 8.526806
vt -5.089622 7.901205
vt 5.089622 7.901205
vt -4.464021 7.085906
vt 4.46402 7.085906
vt -4.070751 6.136469
vt 4.070751 6.136469
vt -3.936614 5.117599
vt 3.936614 5.117599
vt -3.936614 2.493189
vt 3.936614 2.493189
vt -8.892099 8.920075
vt -9.841536 8.526806
vt -10.65683 7.901205
vt -11.28244 7.085906
vt -11.67571 6.136469
vt -11.80984 5.117599
vt -11.80984 2.493189
vt 5.904922 8.526806
vt -5.904921 8.526806
vt 5.089622 7.901205
vt -5.089622 7.901205
vt 4.464021 7.085906
vt -4.46402 7.085906
vt -15.74646 3.532323
vt -15.74646 4.559986
vt 15.74646 3.532323
vt 15.74646 4.559986
vt -15.74646 5.117599
vt 15.74646 5.117599
vt 15.74646 6.615311
vt 15.74646 5.587648
vt -15.74646 6.615311
vt -15.74646 5.587648
vt 15.74646 8.254829
vt 15.74646 7.227167
vt -15.74646 8.254829
vt -15.74646 7.227167
vt 15.74646 9.366813
vt 15.74646 8.33915
vt -15.74646 9.366813
vt -15.74646 8.33915
vt -15.74646 9.87548
vt 15.74646 9.87548
vt -15.74646 8.847817
vt 15.74646 8.847817
vt -15.74646 9.746166
vt 15.74646 9.746166
vt -15.74646 8.718503
vt 15.74646 8.718503
vt -15.74646 8.987683
vt 15.74646 8.987683
vt -15.74646 7.960021
vt 15.74646 7.960021
vt 15.74646 -7.651722
vt -15.74646 -7.651722
vt 15.74646 -6.62406
vt -15.74646 -6.62406
vt 15.74646 -5.829326
vt -15.74646 -5.829326
vt 15.74646 -4.801663
vt -15.74646 -4.801663
vt 15.74646 -3.644687
vt -15.74646 -3.644687
vt 15.74646 -2.617024
vt -15.74646 -2.617024
vt -15.74646 -1.246685
vt -15.74646 -0.2190226
vt 15.74646 -1.246685
vt 15.74646 -0.2190226
vt -15.74646 1.201259
vt -15.74646 2.228922
vt 15.74646 1.201259
vt 15.74646 2.228922
vt -15.74646 6.61531
vt 15.74646 6.61531
vt 15.74646 4.559985
vt -15.74646 4.559985
vt 15.74646 2.228921
vt 15.74646 1.201259
vt -15.74646 2.228921
vt -15.74646 1.201259
vt 15.74646 -0.2190228
vt 15.74646 -1.246685
vt -15.74646 -0.2190228
vt -15.74646 -1.246685
vt -15.74646 -2.617024
vt 15.74646 -2.617024
vt -15.74646 -3.644687
vt 15.74646 -3.644687
vt -15.74646 -4.801663
vt 15.74646 -4.801663
vt -15.74646 -6.62406
vt 15.74646 -6.62406

usemtl border

f 3/3/1 2/2/1 1/1/1
f 2/2/1 3/3/1 4/4/1
f 4/4/1 3/3/1 5/5/1
f 1/8/2 7/7/2 6/6/2
f 7/7/2 1/8/2 2/9/2
f 7/7/2 2/9/2 8/10/2
f 8/10/2 2/9/2 9/11/2
f 8/10/2 9/11/2 10/12/2
f 10/12/2 9/11/2 11/13/2
f 14/16/3 13/15/3 12/14/3
f 13/15/3 14/16/3 15/17/3
f 3/19/4 6/18/4 16/3/4
f 6/18/4 3/19/4 1/20/4
f 19/6/3 18/16/3 17/7/3
f 18/16/3 19/6/3 20/17/3
f 20/17/3 19/6/3 21/9/3
f 21/9/3 19/6/3 22/8/3
f 11/18/5 19/19/5 10/20/5
f 19/19/5 11/18/5 22/3/5
f 19/3/6 8/22/6 10/21/6
f 8/22/6 19/3/6 23/4/6
f 23/4/6 19/3/6 17/5/6
f 24/10/3 3/13/3 16/12/3
f 3/13/3 24/10/3 25/23/3
f 3/13/3 25/23/3 26/24/3
f 3/13/3 26/24/3 5/11/3
f 26/25/4 27/4/4 25/5/4
f 27/4/4 26/25/4 28/26/4
f 15/4/5 18/25/5 14/26/5
f 18/25/5 15/4/5 20/5/5
f 29/26/1 11/28/1 9/27/1
f 11/28/1 29/26/1 22/19/1
f 22/19/1 29/26/1 21/25/1
f 30/26/6 6/30/6 7/29/6
f 6/30/6 30/26/6 16/19/6
f 16/19/6 30/26/6 24/25/6
f 18/5/4 23/31/4 17/3/4
f 23/31/4 18/5/4 14/4/4
f 27/26/5 24/19/5 30/32/5
f 24/19/5 27/26/5 25/25/5
f 4/31/5 26/5/5 28/4/5
f 26/5/5 4/31/5 5/3/5
f 21/19/4 15/26/4 20/25/4
f 15/26/4 21/19/4 29/32/4
f 31/33/3 28/24/3 27/23/3
f 28/24/3 31/33/3 32/34/3
f 35/37/3 34/36/3 33/35/3
f 34/36/3 35/37/3 36/38/3

usemtl green

f 4/4/1 9/27/1 2/2/1
f 9/27/1 4/4/1 29/26/1
f 23/4/6 7/29/6 8/22/6
f 7/29/6 23/4/6 30/26/6
f 23/7/3 27/23/3 30/10/3
f 27/23/3 23/7/3 31/33/3
f 31/33/3 23/7/3 33/35/3
f 31/33/3 33/35/3 32/34/3
f 33/35/3 23/7/3 35/37/3
f 34/36/3 32/34/3 33/35/3
f 35/37/3 23/7/3 12/14/3
f 12/14/3 23/7/3 14/16/3
f 35/37/3 12/14/3 36/38/3
f 13/15/3 36/38/3 12/14/3
f 29/9/3 34/36/3 36/38/3
f 29/9/3 36/38/3 13/15/3
f 29/9/3 32/34/3 34/36/3
f 29/9/3 13/15/3 15/17/3
f 4/11/3 32/34/3 29/9/3
f 32/34/3 4/11/3 28/24/3

usemtl wood

f 39/16/3 38/24/3 37/23/3
f 38/24/3 39/16/3 40/17/3
f 38/40/4 25/5/4 37/39/4
f 25/5/4 38/40/4 26/25/4
f 20/5/5 39/40/5 18/25/5
f 39/40/5 20/5/5 40/39/5
f 18/5/6 12/41/6 14/4/6
f 12/41/6 18/5/6 41/42/6
f 41/42/6 18/5/6 42/43/6
f 42/43/6 18/5/6 39/39/6
f 42/43/6 39/39/6 43/44/6
f 43/44/6 39/39/6 44/45/6
f 44/45/6 39/39/6 45/46/6
f 45/46/6 39/39/6 46/47/6
f 46/47/6 39/39/6 47/48/6
f 47/48/6 39/39/6 48/49/6
f 37/40/6 48/49/6 39/39/6
f 49/50/6 47/48/6 48/49/6
f 49/50/6 50/51/6 47/48/6
f 51/52/6 50/51/6 49/50/6
f 51/52/6 52/53/6 50/51/6
f 53/54/6 52/53/6 51/52/6
f 53/54/6 54/55/6 52/53/6
f 55/56/6 54/55/6 53/54/6
f 55/56/6 56/57/6 54/55/6
f 57/58/6 56/57/6 55/56/6
f 57/58/6 58/59/6 56/57/6
f 59/60/6 58/59/6 57/58/6
f 59/60/6 60/61/6 58/59/6
f 33/62/6 60/61/6 59/60/6
f 60/61/6 33/62/6 35/63/6
f 37/40/6 61/64/6 48/49/6
f 37/40/6 62/65/6 61/64/6
f 37/40/6 63/66/6 62/65/6
f 37/40/6 64/67/6 63/66/6
f 37/40/6 65/68/6 64/67/6
f 25/25/6 65/68/6 37/40/6
f 25/25/6 66/69/6 65/68/6
f 27/26/6 66/69/6 25/25/6
f 66/69/6 27/26/6 31/70/6
f 28/4/1 67/42/1 32/41/1
f 67/42/1 28/4/1 26/5/1
f 67/42/1 26/5/1 68/43/1
f 68/43/1 26/5/1 38/39/1
f 68/43/1 38/39/1 69/44/1
f 69/44/1 38/39/1 70/45/1
f 70/45/1 38/39/1 71/46/1
f 71/46/1 38/39/1 72/47/1
f 72/47/1 38/39/1 73/48/1
f 73/48/1 38/39/1 74/49/1
f 74/49/1 75/51/1 73/48/1
f 40/40/1 74/49/1 38/39/1
f 76/50/1 75/51/1 74/49/1
f 76/50/1 77/71/1 75/51/1
f 78/72/1 77/71/1 76/50/1
f 78/72/1 79/73/1 77/71/1
f 80/74/1 79/73/1 78/72/1
f 80/74/1 81/75/1 79/73/1
f 82/76/1 81/75/1 80/74/1
f 40/40/1 83/64/1 74/49/1
f 82/76/1 84/59/1 81/75/1
f 85/58/1 84/59/1 82/76/1
f 86/60/1 84/59/1 85/58/1
f 86/60/1 87/61/1 84/59/1
f 36/62/1 87/61/1 86/60/1
f 87/61/1 36/62/1 34/63/1
f 40/40/1 88/65/1 83/64/1
f 40/40/1 89/66/1 88/65/1
f 40/40/1 90/67/1 89/66/1
f 40/40/1 91/68/1 90/67/1
f 20/25/1 91/68/1 40/40/1
f 20/25/1 92/69/1 91/68/1
f 15/26/1 92/69/1 20/25/1
f 92/69/1 15/26/1 13/70/1
f 67/79/7 65/78/8 66/77/7
f 65/78/8 67/79/7 68/80/8
f 32/4/5 66/81/7 31/26/5
f 66/81/7 32/4/5 67/82/7
f 59/82/9 34/26/4 33/4/4
f 34/26/4 59/82/9 87/81/9
f 84/85/10 59/84/9 57/83/10
f 59/84/9 84/85/10 87/86/9
f 81/89/11 57/88/10 55/87/11
f 57/88/10 81/89/11 84/90/10
f 79/93/12 55/92/11 53/91/12
f 55/92/11 79/93/12 81/94/11
f 79/97/12 51/96/13 77/95/13
f 51/96/13 79/97/12 53/98/12
f 77/101/13 49/100/14 75/99/14
f 49/100/14 77/101/13 51/102/13
f 75/105/14 48/104/2 73/103/2
f 48/104/2 75/105/14 49/106/14
f 73/109/2 61/108/15 72/107/15
f 61/108/15 73/109/2 48/110/2
f 72/113/15 62/112/16 71/111/16
f 62/112/16 72/113/15 61/114/15
f 71/117/16 63/116/17 70/115/17
f 63/116/17 71/117/16 62/118/16
f 69/121/18 63/120/17 64/119/18
f 63/120/17 69/121/18 70/122/17
f 68/125/8 64/124/18 65/123/8
f 64/124/18 68/125/8 69/126/18
f 86/84/7 58/127/8 60/86/7
f 58/127/8 86/84/7 85/128/8
f 36/4/5 60/81/7 35/26/5
f 60/81/7 36/4/5 86/82/7
f 92/81/9 12/4/4 41/82/9
f 12/4/4 92/81/9 13/26/4
f 91/130/10 41/79/9 42/129/10
f 41/79/9 91/130/10 92/77/9
f 90/133/11 42/132/10 43/131/11
f 42/132/10 90/133/11 91/134/10
f 89/137/12 43/136/11 44/135/12
f 43/136/11 89/137/12 90/138/11
f 89/141/12 45/140/13 88/139/13
f 45/140/13 89/141/12 44/142/12
f 88/112/13 46/144/14 83/143/14
f 46/144/14 88/112/13 45/111/13
f 83/108/14 47/146/2 74/145/2
f 47/146/2 83/108/14 46/107/14
f 74/104/2 50/105/15 76/106/15
f 50/105/15 74/104/2 47/103/2
f 76/100/15 52/101/16 78/102/16
f 52/101/16 76/100/15 50/99/15
f 78/96/16 54/97/17 80/98/17
f 54/97/17 78/96/16 52/95/16
f 82/92/18 54/93/17 56/94/18
f 54/93/17 82/92/18 80/91/17
f 85/88/8 56/89/18 58/90/8
f 56/89/18 85/88/8 82/87/18

